<svg width="307.26" height="107.56" xmlns="http://www.w3.org/2000/svg" data-name="Layer 1">

 <g>
  <title>Layer 1</title>
  <g id="svg_8">
   <path id="svg_9" stroke-width="0px" d="m53.28,45.99c1.42,-0.14 2.51,-0.52 3.28,-1.14c0.76,-0.62 1.49,-1.75 2.18,-3.38l13.68,-31.98l0.88,0l13.94,31.98c0.76,1.66 1.53,2.8 2.31,3.41c0.78,0.61 1.92,0.98 3.41,1.12l0,0.78l-14.04,0l0,-0.78c1.28,-0.07 2.2,-0.26 2.76,-0.57c0.55,-0.31 0.83,-0.78 0.83,-1.4s-0.26,-1.47 -0.78,-2.55l-2.7,-6.29l-14.92,0l-2.65,6.29c-0.45,1.01 -0.68,1.84 -0.68,2.5s0.29,1.14 0.86,1.46c0.57,0.31 1.52,0.5 2.83,0.57l0,0.78l-11.18,0l0,-0.78l-0.01,-0.02zm11.8,-13.15l12.95,0l-6.45,-15.13l-6.5,15.13z" class="cls-1"/>
   <path id="svg_10" stroke-width="0px" d="m94.51,46.77l0,-0.78c1.8,-0.1 3.07,-0.42 3.8,-0.94c0.73,-0.52 1.09,-1.56 1.09,-3.12l0,-26.82c0,-1.49 -0.36,-2.51 -1.09,-3.07c-0.83,-0.55 -2.1,-0.88 -3.8,-0.99l0,-0.73l15.65,0c4.47,0 8.13,0.76 10.97,2.29c2.95,1.53 5.1,3.55 6.45,6.08c1.39,2.53 2.08,5.39 2.08,8.58c0,3.99 -0.88,7.47 -2.65,10.45c-1.84,3.02 -4.16,5.25 -6.97,6.71c-2.84,1.56 -5.86,2.34 -9.05,2.34l-16.48,0zm10.51,-3.48c0.45,0.45 1.13,0.75 2.03,0.88c0.8,0.17 2.11,0.26 3.95,0.26c2.74,0 5.1,-0.62 7.07,-1.87c2.01,-1.25 3.57,-3.08 4.68,-5.51c1.07,-2.36 1.61,-5.2 1.61,-8.53c0,-2.77 -0.59,-5.36 -1.77,-7.75c-1.21,-2.46 -2.95,-4.44 -5.2,-5.93c-2.22,-1.49 -4.94,-2.24 -8.16,-2.24l-4.84,0l0,28.76c0,0.87 0.21,1.51 0.62,1.92l0.01,0.01z" class="cls-1"/>
   <path id="svg_11" stroke-width="0px" d="m132.47,12.19c-0.83,-0.66 -1.94,-1.04 -3.33,-1.14l0,-0.73l14.04,0l0,0.73c-1.39,0.1 -2.32,0.29 -2.81,0.57c-0.59,0.28 -0.88,0.75 -0.88,1.4c0,0.59 0.26,1.44 0.78,2.55l10.14,23.82l10.19,-23.82c0.49,-1.14 0.73,-1.98 0.73,-2.5c0,-0.66 -0.29,-1.14 -0.88,-1.46c-0.45,-0.28 -1.4,-0.47 -2.86,-0.57l0,-0.73l11.13,0l0,0.73c-1.46,0.17 -2.53,0.55 -3.22,1.14c-0.73,0.59 -1.47,1.72 -2.24,3.38l-13.62,32.03l-0.83,0l-14.04,-32.03c-0.73,-1.63 -1.49,-2.76 -2.29,-3.38l-0.01,0.01z" class="cls-1"/>
   <path id="svg_12" stroke-width="0px" d="m207.82,17.08l0,24.39c0,1.11 0.17,1.98 0.52,2.6c0.35,0.62 0.93,1.08 1.74,1.35s1.97,0.47 3.46,0.57l0,0.78l-27.25,0l0,-0.78c1.28,-0.07 2.2,-0.26 2.76,-0.57c0.55,-0.31 0.83,-0.78 0.83,-1.4s-0.26,-1.47 -0.78,-2.55l-2.7,-6.29l-14.92,0l-2.65,6.29c-0.45,1.01 -0.68,1.84 -0.68,2.5s0.29,1.14 0.86,1.46c0.57,0.31 1.52,0.5 2.83,0.57l0,0.78l-11.18,0l0,-0.78c1.42,-0.14 2.51,-0.52 3.28,-1.14c0.76,-0.62 1.49,-1.75 2.18,-3.38l13.68,-31.98l0.88,0l13.52,31.04c0.76,1.63 1.59,2.77 2.5,3.43s2.11,0.99 3.64,0.99c1.87,0 3.16,-0.34 3.87,-1.01s1.07,-1.85 1.07,-3.51l0,-26.69c-0.83,-0.9 -1.63,-1.56 -2.39,-1.98c-0.76,-0.42 -1.73,-0.66 -2.91,-0.73l0,-0.73l9,0l20.12,27.4l0,-22.08c0,-1.63 -0.42,-2.76 -1.25,-3.41s-2.34,-1.03 -4.52,-1.17l0,-0.73l13.21,0l0,0.73c-1.87,0.14 -3.16,0.52 -3.85,1.14c-0.69,0.62 -1.04,1.77 -1.04,3.43l0,31.98l-1.3,0l-22.52,-30.52l-0.01,0zm-22.41,15.76l-6.45,-15.13l-6.5,15.13l12.95,0z" class="cls-1"/>
   <path id="svg_13" stroke-width="0px" d="m261.8,45.99l0,0.78l-14.77,0l0,-0.78c1.8,-0.1 3.08,-0.43 3.82,-0.99c0.75,-0.55 1.12,-1.58 1.12,-3.07l0,-29.32l-3.43,0c-2.46,0 -4.4,0.59 -5.82,1.77c-1.42,1.18 -2.44,3.09 -3.07,5.72l-0.78,0l1.4,-9.78l28.29,0l1.4,9.78l-0.78,0c-0.62,-2.63 -1.65,-4.54 -3.07,-5.72c-1.42,-1.18 -3.36,-1.77 -5.82,-1.77l-3.43,0l0,29.33c0,1.49 0.36,2.51 1.09,3.07s2.01,0.88 3.85,0.99l0,-0.01z" class="cls-1"/>
   <path id="svg_14" stroke-width="0px" d="m276.1,45.01c0.73,-0.52 1.09,-1.54 1.09,-3.07l0,-26.83c0,-1.49 -0.36,-2.51 -1.09,-3.07c-0.83,-0.55 -2.1,-0.88 -3.8,-0.99l0,-0.73l14.72,0l0,0.73c-1.7,0.1 -2.95,0.43 -3.74,0.99c-0.73,0.56 -1.09,1.58 -1.09,3.07l0,26.83c0,1.53 0.36,2.55 1.09,3.07c0.8,0.55 2.04,0.88 3.74,0.99l0,0.78l-14.72,0l0,-0.78c1.73,-0.1 3,-0.43 3.8,-0.99z" class="cls-1"/>
  </g>
 </g>
</svg>