<?xml version="1.0" encoding="utf-8"?>
<!-- Generator: Adobe Illustrator 16.0.0, SVG Export Plug-In . SVG Version: 6.00 Build 0)  -->
<!DOCTYPE svg PUBLIC "-//W3C//DTD SVG 1.1//EN" "http://www.w3.org/Graphics/SVG/1.1/DTD/svg11.dtd">
<svg version="1.1" id="Layer_2" xmlns="http://www.w3.org/2000/svg" xmlns:xlink="http://www.w3.org/1999/xlink" x="0px" y="0px"
	 width="640px" height="480px" viewBox="0 0 640 480" enable-background="new 0 0 640 480" xml:space="preserve">
<g>
	<g>
		<path d="M308.955,41.08c47.148-4.432,91.856,20.864,111.05,64.428c8.557,19.42,10.647,42.021,7.49,62.994
			c-4.789,31.811-19.308,61.684-37.093,88.163c-14.973,22.29-33.004,42.416-52.43,60.897c-5.543,5.273-11.25,10.374-17.039,15.377
			c-0.574,0.496-0.136,0.176-1.831-1.288c-1.475-1.275-2.936-2.567-4.396-3.859c-3.31-2.929-6.562-5.922-9.788-8.942
			c-10.495-9.823-20.47-20.201-29.887-31.061c-25.007-28.836-46.062-62.291-56.6-99.222c-3.636-12.743-6.883-27.176-5.598-40.567
			c0.308-3.21-4.695-3.18-5,0c-0.591,6.159,0.125,12.562,0.928,18.658c2.205,16.731,7.213,33.039,13.854,48.521
			c10.727,25.008,25.645,47.887,42.813,68.933c8.768,10.749,18.225,20.925,28.075,30.686c5.273,5.226,10.71,10.283,16.23,15.247
			c2.909,2.614,5.864,5.177,8.833,7.723c0.977,0.837,2.74,1.064,3.889,0.391c2.856-1.673,5.431-4.645,7.909-6.838
			c2.848-2.521,5.651-5.091,8.438-7.679c5.712-5.304,11.256-10.785,16.677-16.385c9.314-9.622,18.104-19.751,26.337-30.311
			c12.972-16.637,24.379-34.513,33.427-53.585c10.1-21.29,17.732-44.8,18.546-68.529c0.869-25.357-5.891-50.469-20.421-71.375
			C389.949,49.763,349.49,32.27,308.955,36.08C305.773,36.379,305.744,41.382,308.955,41.08L308.955,41.08z"/>
	</g>
</g>
<g>
	<g>
		<path d="M319.514,440.909c-38.105-23.979-76.211-47.959-114.317-71.938c-34.728-21.854-69.456-43.707-104.183-65.562
			c-3.285-2.066-6.293,3.127-3.028,5.182c38.105,23.979,76.211,47.959,114.317,71.938c34.728,21.854,69.455,43.707,104.183,65.562
			C319.771,448.157,322.779,442.964,319.514,440.909L319.514,440.909z"/>
	</g>
</g>
<g>
	<g>
		<path d="M320.014,446.091c38.106-23.979,76.211-47.959,114.317-71.938c34.728-21.854,69.455-43.708,104.183-65.562
			c3.266-2.055,0.257-7.248-3.027-5.182c-38.106,23.979-76.212,47.959-114.317,71.938c-34.728,21.854-69.455,43.708-104.183,65.562
			C313.721,442.964,316.729,448.157,320.014,446.091L320.014,446.091z"/>
	</g>
</g>
<g>
	<g>
		<path d="M399.33,250.534c44.036,18.776,88.072,37.554,132.109,56.331c1.349,0.575,2.697,1.15,4.047,1.726
			c3.517,1.499,6.577-3.668,3.027-5.182c-44.036-18.776-88.072-37.554-132.109-56.331c-1.349-0.575-2.697-1.15-4.047-1.726
			C398.841,243.854,395.78,249.021,399.33,250.534L399.33,250.534z"/>
	</g>
</g>
<g>
	<g>
		<path d="M161.108,344.621c7.815-7.306,17.727-12.998,27.617-16.896c21.52-8.482,44.001-5.315,61.899,9.555
			c5.6,4.652,10.29,10.315,15.458,15.422c4.678,4.622,9.658,8.909,14.9,12.877c7.451,5.641,15.917,10.254,25.103,12.247
			c15.525,3.367,30.174-3.14,43.552-10.359c17.307-9.339,33.401-20.543,51.41-28.609c27.218-12.191,62.659-21.032,88.64-1.445
			c3.092,2.331,6.076-2.883,3.027-5.182c-30.971-23.35-73.742-9.388-104.838,6.271c-8.945,4.504-17.745,9.533-25.954,15.288
			c-6.008,4.212-13.255,7.484-19.776,10.856c-6.884,3.56-14.052,6.565-21.748,7.776c-16.737,2.634-31.983-7.749-43.91-18.208
			c-9.032-7.922-16.48-17.409-26.07-24.702c-8.022-6.101-17.554-10.194-27.477-11.872c-23.328-3.944-49.082,6.852-66.075,22.739
			C154.034,343.026,158.286,347.26,161.108,344.621L161.108,344.621z"/>
	</g>
</g>
<g>
	<g>
		<path d="M438.365,264.761c0.493-1.256,0.256-0.577,0.02-0.236c0.528-0.762-0.456,0.437-0.907,0.821
			c-1.375,1.174-5.015,2.841-7.474,3.713c-16.411,5.823-34.997,6.211-52.186,6.618c-3.862,0.092-3.871,6.092,0,6
			c18.216-0.432,38.181-0.861,55.46-7.449c3.854-1.471,9.225-3.671,10.872-7.871C445.565,262.75,439.762,261.201,438.365,264.761
			L438.365,264.761z"/>
	</g>
</g>
<g>
	<g>
		<path d="M391.555,142c-0.391-39.564-32.49-71.665-72.055-72.055c-3.226-0.032-3.223,4.968,0,5
			c36.845,0.363,66.691,30.21,67.055,67.055C386.587,145.223,391.587,145.226,391.555,142L391.555,142z"/>
	</g>
</g>
<g>
	<g>
		<path d="M319.5,214.501c39.564-0.39,71.664-32.49,72.055-72.055c0.032-3.226-4.968-3.223-5,0
			c-0.363,36.844-30.21,66.691-67.055,67.055C316.277,209.533,316.274,214.533,319.5,214.501L319.5,214.501z"/>
	</g>
</g>
<g>
	<g>
		<path d="M246,142.447c0.39,39.564,32.49,71.665,72.054,72.055c3.226,0.032,3.223-4.968,0-5
			c-36.844-0.363-66.691-30.21-67.054-67.055C250.969,139.224,245.969,139.221,246,142.447L246,142.447z"/>
	</g>
</g>
</svg>
