<?xml version="1.0" encoding="utf-8"?>
<!-- Generator: Adobe Illustrator 16.0.0, SVG Export Plug-In . SVG Version: 6.00 Build 0)  -->
<!DOCTYPE svg PUBLIC "-//W3C//DTD SVG 1.1//EN" "http://www.w3.org/Graphics/SVG/1.1/DTD/svg11.dtd">
<svg version="1.1" xmlns="http://www.w3.org/2000/svg" xmlns:xlink="http://www.w3.org/1999/xlink" x="0px" y="0px" width="250px"
	 height="250px" viewBox="0 0 250 250" enable-background="new 0 0 250 250" xml:space="preserve">
<g id="Layer_2">
	<g>
		<g>
			<path d="M126.386,13.222C90.677,13.629,63.788,43.094,64.353,78.31c0.223,13.886,5.063,27.617,11.029,39.979
				c11.447,23.721,29.783,43.765,49.591,60.799c1.944,1.673,4.787-1.144,2.828-2.828c-27.871-23.969-57.077-57.513-59.378-96.122
				c-2.005-33.65,24.039-62.53,57.963-62.917C128.964,17.193,128.967,13.193,126.386,13.222L126.386,13.222z"/>
		</g>
	</g>
	<g>
		<g>
			<path d="M126.854,17.222c35.046,0.399,60.861,30.891,57.79,65.247c-3.367,37.655-31.924,70.327-59.204,93.792
				c-1.959,1.685,0.884,4.501,2.828,2.828c28.31-24.35,56.315-57.437,60.33-96.145c3.392-32.707-18.983-63.27-51.613-68.888
				c-3.346-0.576-6.74-0.795-10.131-0.834C124.274,13.193,124.277,17.193,126.854,17.222L126.854,17.222z"/>
		</g>
	</g>
	<g>
		<g>
			<path d="M126.123,234.551c-39.337-24.755-78.674-49.51-118.012-74.264c-0.367-0.231-0.735-0.463-1.102-0.693
				c-2.19-1.379-4.195,2.084-2.019,3.453c39.337,24.755,78.674,49.51,118.012,74.264c0.367,0.231,0.735,0.463,1.102,0.693
				C126.294,239.383,128.3,235.92,126.123,234.551L126.123,234.551z"/>
		</g>
	</g>
	<g>
		<g>
			<path d="M82.211,126.727c-25.74,10.955-51.48,21.911-77.221,32.867c-2.367,1.007-0.326,4.451,2.019,3.453
				c25.74-10.955,51.48-21.911,77.221-32.867C86.597,129.173,84.556,125.728,82.211,126.727L82.211,126.727z"/>
		</g>
	</g>
	<g>
		<g>
			<path d="M126.396,238.004c39.338-24.754,78.675-49.509,118.013-74.264c0.367-0.23,0.734-0.462,1.102-0.693
				c2.177-1.369,0.171-4.832-2.02-3.453c-39.337,24.754-78.675,49.509-118.012,74.264c-0.367,0.23-0.734,0.462-1.102,0.693
				C122.2,235.92,124.206,239.383,126.396,238.004L126.396,238.004z"/>
		</g>
	</g>
	<g>
		<g>
			<path d="M169.266,131.398c24.742,10.55,49.483,21.1,74.225,31.648c2.345,1,4.386-2.444,2.02-3.453
				c-24.742-10.55-49.483-21.1-74.225-31.648C168.94,126.945,166.899,130.39,169.266,131.398L169.266,131.398z"/>
		</g>
	</g>
	<g>
		<g>
			<path d="M161.849,71.917c-0.357,19.843-16.073,35.561-35.917,35.917c-19.845,0.357-35.57-16.612-35.917-35.917
				C89.657,52.072,106.626,36.347,125.932,36C145.776,35.643,161.501,52.611,161.849,71.917c0.046,2.576,4.047,2.581,4,0
				c-0.388-21.525-17.05-38.731-38.527-39.892c-21.512-1.163-39.329,16.296-41.208,37.125
				c-1.939,21.492,14.956,39.839,35.687,42.462c20.887,2.643,41.034-13.499,43.655-34.214c0.231-1.83,0.36-3.637,0.394-5.481
				C165.896,69.336,161.895,69.341,161.849,71.917z"/>
		</g>
	</g>
	<g>
		<g>
			<path d="M39.843,182.633c11.293-10.508,28.501-15.467,42.612-7.945c6.483,3.457,11.006,9.479,16.275,14.418
				c3.813,3.575,8.042,6.778,12.691,9.181c6.88,3.556,14.35,3.796,21.595,1.296c11.355-3.919,20.985-11.715,31.577-17.177
				c15.989-8.246,37.901-15.51,53.93-3.647c2.077,1.537,4.068-1.938,2.02-3.453c-15.313-11.333-35.494-6.379-51.537,0.588
				c-11.641,5.054-21.789,12.716-33.201,18.215c-8.314,4.007-16.286,4.161-24.435-0.389c-11.657-6.508-18.29-19.007-30.745-24.332
				c-14.719-6.293-31.512,0.037-43.032,9.903c-0.196,0.168-0.389,0.339-0.578,0.515C35.123,181.565,37.958,184.388,39.843,182.633
				L39.843,182.633z"/>
		</g>
	</g>
	<g>
		<g>
			<path d="M57.547,139.388c0.121,6.382,4.632,11.94,9.955,14.961c10.364,5.882,23.162,3.063,34.284,1.586
				c2.519-0.334,2.551-4.339,0-4c-10.047,1.334-20.416,3.53-30.257-0.094c-5.044-1.857-9.877-6.932-9.982-12.453
				C61.499,136.812,57.499,136.807,57.547,139.388L57.547,139.388z"/>
		</g>
	</g>
	<g>
		<g>
			<path d="M190.378,138.743c0.284-0.697,0.189-0.333-0.456,0.212c-1.087,0.919-2.637,1.444-3.951,1.912
				c-8.879,3.16-18.947,3.321-28.247,3.559c-2.574,0.065-2.581,4.065,0,4c10.012-0.255,20.923-0.5,30.421-4.11
				c2.253-0.855,5.113-2.11,6.091-4.51C195.209,137.416,191.338,136.387,190.378,138.743L190.378,138.743z"/>
		</g>
	</g>
</g>
<g id="Layer_3">
</g>
</svg>
