<?xml version="1.0" encoding="utf-8"?>
<!-- Generator: Adobe Illustrator 16.0.0, SVG Export Plug-In . SVG Version: 6.00 Build 0)  -->
<!DOCTYPE svg PUBLIC "-//W3C//DTD SVG 1.1//EN" "http://www.w3.org/Graphics/SVG/1.1/DTD/svg11.dtd">
<svg version="1.1" xmlns="http://www.w3.org/2000/svg" xmlns:xlink="http://www.w3.org/1999/xlink" x="0px" y="0px" width="250px"
	 height="250px" viewBox="0 0 250 250" enable-background="new 0 0 250 250" xml:space="preserve">
<g id="Layer_3">
	<g>
		<g>
			<path d="M5.375,137.788c39.188-27.494,78.376-54.987,117.564-82.481c1.2-0.842,2.4-1.685,3.601-2.526
				c2.094-1.469,0.098-4.939-2.019-3.454C85.333,76.821,46.145,104.314,6.957,131.809c-1.2,0.842-2.4,1.684-3.601,2.526
				C1.262,135.804,3.257,139.273,5.375,137.788L5.375,137.788z"/>
		</g>
	</g>
	<g>
		<g>
			<path d="M5.375,111.669c32.714-23.062,65.428-46.123,98.142-69.184c2.09-1.474,0.095-4.944-2.019-3.454
				C68.784,62.093,36.07,85.154,3.356,108.215C1.266,109.689,3.261,113.159,5.375,111.669L5.375,111.669z"/>
		</g>
	</g>
	<g>
		<g>
			<path d="M6.527,136.062c0-8.706,0-17.413,0-26.119c0-2.58-4-2.58-4,0c0,8.707,0,17.413,0,26.119
				C2.527,138.641,6.527,138.641,6.527,136.062L6.527,136.062z"/>
		</g>
	</g>
	<g>
		<g>
			<path d="M248.404,136.062c0-8.727,0-17.454,0-26.18c0-2.58-4-2.58-4,0c0,8.727,0,17.454,0,26.18
				C244.404,138.641,248.404,138.641,248.404,136.062L248.404,136.062z"/>
		</g>
	</g>
	<g>
		<g>
			<path d="M247.479,134.335c-39.188-27.494-78.376-54.988-117.564-82.482c-1.2-0.842-2.4-1.684-3.601-2.526
				c-2.118-1.485-4.113,1.985-2.019,3.454c39.188,27.494,78.375,54.988,117.564,82.481c1.2,0.843,2.4,1.685,3.601,2.526
				C247.576,139.273,249.572,135.804,247.479,134.335L247.479,134.335z"/>
		</g>
	</g>
	<g>
		<g>
			<path d="M103.516,42.485c5.479-3.963,11.164-7.784,17.186-10.873c3.492-1.791,5.282-1.745,8.8-0.099
				c4.093,1.915,7.952,4.377,11.755,6.802c6.078,3.877,11.904,8.143,17.793,12.298c23.795,16.792,47.59,33.584,71.385,50.376
				c5.016,3.539,10.031,7.079,15.046,10.618c2.113,1.491,4.108-1.979,2.02-3.454c-18.366-12.961-36.732-25.922-55.099-38.883
				c-18.255-12.882-36.147-26.96-55.45-38.291c-6.039-3.544-10.756-6.283-17.432-3.229c-6.389,2.921-12.343,7.172-18.021,11.279
				C99.429,40.528,101.422,44,103.516,42.485L103.516,42.485z"/>
		</g>
	</g>
</g>
<g id="Layer_2">
	<g display="none">
		<g display="inline">
			<g>
				<path d="M-115-38c37,0,74,0,111,0c3.224,0,3.224-5,0-5c-37,0-74,0-111,0C-118.224-43-118.224-38-115-38L-115-38z"/>
			</g>
		</g>
		<g display="inline">
			<g>
				<path d="M-4,6c-37,0-74,0-111,0c-3.224,0-3.224,5,0,5c37,0,74,0,111,0C-0.776,11-0.776,6-4,6L-4,6z"/>
			</g>
		</g>
		<g display="inline">
			<g>
				<path d="M-117.268-41.434c-13.885,14.488-13.886,36.778,0,51.266c2.234,2.332,5.766-1.208,3.535-3.535
					c-11.988-12.509-11.988-31.686,0-44.195C-111.502-40.226-115.033-43.766-117.268-41.434L-117.268-41.434z"/>
			</g>
		</g>
	</g>
	<g>
		<g>
			<g>
				<path d="M62.465,98.041c9.737,0,19.475,0,29.212,0c2.58,0,2.58-4,0-4c-9.737,0-19.475,0-29.212,0
					C59.885,94.041,59.885,98.041,62.465,98.041L62.465,98.041z"/>
			</g>
		</g>
		<g>
			<g>
				<path d="M159.449,98.041c9.737,0,19.475,0,29.212,0c2.579,0,2.579-4,0-4c-9.737,0-19.475,0-29.212,0
					C156.87,94.041,156.87,98.041,159.449,98.041L159.449,98.041z"/>
			</g>
		</g>
	</g>
	<g>
		<g>
			<g>
				<path d="M102.875,69.413c15.093,0,30.187,0,45.279,0c2.579,0,2.579-4,0-4c-15.093,0-30.186,0-45.279,0
					C100.295,65.413,100.295,69.413,102.875,69.413L102.875,69.413z"/>
			</g>
		</g>
		<g>
			<g>
				<path d="M144.667,94.041c-12.769,0-25.537,0-38.305,0c-2.58,0-2.58,4,0,4c12.768,0,25.536,0,38.305,0
					C147.246,98.041,147.246,94.041,144.667,94.041L144.667,94.041z"/>
			</g>
		</g>
	</g>
	<g>
		<g>
			<g>
				<path d="M23.515,126.668c34.005,0,68.01,0,102.015,0c2.579,0,2.579-4,0-4c-34.005,0-68.01,0-102.015,0
					C20.936,122.668,20.936,126.668,23.515,126.668L23.515,126.668z"/>
			</g>
		</g>
		<g>
			<g>
				<path d="M21.809,123.741c-8.274,8.905-8.275,21.81,0,30.715c1.759,1.894,4.582-0.941,2.828-2.828
					c-6.771-7.287-6.771-17.771,0-25.059C26.39,124.683,23.568,121.848,21.809,123.741L21.809,123.741z"/>
			</g>
		</g>
	</g>
	<g>
		<g>
			<g>
				<path d="M23.515,155.297c25.999,0,51.998,0,77.997,0c2.58,0,2.58-4,0-4c-25.999,0-51.998,0-77.997,0
					C20.936,151.297,20.936,155.297,23.515,155.297L23.515,155.297z"/>
			</g>
		</g>
		<g>
			<g>
				<path d="M21.809,152.369c-8.274,8.904-8.274,21.811,0,30.715c1.759,1.894,4.582-0.941,2.828-2.828
					c-6.771-7.287-6.771-17.771,0-25.059C26.391,153.311,23.568,150.476,21.809,152.369L21.809,152.369z"/>
			</g>
		</g>
	</g>
	<g>
		<g>
			<g>
				<path d="M23.515,183.924c25.382,0,50.764,0,76.146,0c2.58,0,2.58-4,0-4c-25.382,0-50.764,0-76.146,0
					C20.936,179.924,20.936,183.924,23.515,183.924L23.515,183.924z"/>
			</g>
		</g>
		<g>
			<g>
				<path d="M99.662,208.553c-25.382,0-50.764,0-76.146,0c-2.58,0-2.58,4,0,4c25.382,0,50.764,0,76.146,0
					C102.241,212.553,102.241,208.553,99.662,208.553L99.662,208.553z"/>
			</g>
		</g>
		<g>
			<g>
				<path d="M21.809,180.997c-8.274,8.904-8.274,21.811,0,30.715c1.759,1.894,4.582-0.941,2.828-2.828
					c-6.771-7.287-6.771-17.771,0-25.059C26.391,181.938,23.568,179.104,21.809,180.997L21.809,180.997z"/>
			</g>
		</g>
	</g>
	<g>
		<g>
			<g>
				<path d="M23.515,212.553c25.382,0,50.764,0,76.146,0c2.58,0,2.58-4,0-4c-25.382,0-50.764,0-76.146,0
					C20.936,208.553,20.936,212.553,23.515,212.553L23.515,212.553z"/>
			</g>
		</g>
		<g>
			<g>
				<path d="M150.296,237.18c-42.26,0-84.521,0-126.781,0c-2.58,0-2.58,4,0,4c42.26,0,84.521,0,126.781,0
					C152.875,241.18,152.875,237.18,150.296,237.18L150.296,237.18z"/>
			</g>
		</g>
		<g>
			<g>
				<path d="M21.809,209.625c-8.274,8.904-8.274,21.811,0,30.715c1.759,1.894,4.582-0.941,2.828-2.828
					c-6.771-7.287-6.771-17.771,0-25.059C26.391,210.566,23.568,207.731,21.809,209.625L21.809,209.625z"/>
			</g>
		</g>
	</g>
	<g>
		<g>
			<path d="M125.53,151.297c-7.909,0-15.818,0-23.727,0c-2.58,0-2.58,4,0,4c7.909,0,15.818,0,23.727,0
				C128.109,155.297,128.109,151.297,125.53,151.297L125.53,151.297z"/>
		</g>
	</g>
	<g>
		<g>
			<path d="M99.512,153.589c0,28.433,0,56.866,0,85.299c0,2.579,4,2.579,4,0c0-28.433,0-56.866,0-85.299
				C103.512,151.01,99.512,151.01,99.512,153.589L99.512,153.589z"/>
		</g>
	</g>
	<g>
		<g>
			<g>
				<path d="M227.319,122.668c-34.005,0-68.011,0-102.016,0c-2.58,0-2.58,4,0,4c34.005,0,68.011,0,102.016,0
					C229.898,126.668,229.898,122.668,227.319,122.668L227.319,122.668z"/>
			</g>
		</g>
		<g>
			<g>
				<path d="M226.197,126.569c6.771,7.288,6.771,17.771,0,25.059c-1.753,1.887,1.069,4.722,2.828,2.828
					c8.275-8.905,8.274-21.81,0-30.715C227.267,121.848,224.444,124.683,226.197,126.569L226.197,126.569z"/>
			</g>
		</g>
	</g>
	<g>
		<g>
			<g>
				<path d="M227.319,151.297c-25.999,0-51.998,0-77.997,0c-2.579,0-2.579,4,0,4c25.999,0,51.998,0,77.997,0
					C229.898,155.297,229.898,151.297,227.319,151.297L227.319,151.297z"/>
			</g>
		</g>
		<g>
			<g>
				<path d="M227.319,183.924c2.579,0,2.579-4,0-4S224.74,183.924,227.319,183.924L227.319,183.924z"/>
			</g>
		</g>
		<g>
			<g>
				<path d="M151.172,183.924c2.579,0,2.579-4,0-4S148.593,183.924,151.172,183.924L151.172,183.924z"/>
			</g>
		</g>
		<g>
			<g>
				<path d="M226.197,155.197c6.771,7.287,6.771,17.771,0,25.059c-1.753,1.887,1.069,4.722,2.828,2.828
					c8.274-8.904,8.274-21.811,0-30.715C227.267,150.476,224.444,153.311,226.197,155.197L226.197,155.197z"/>
			</g>
		</g>
	</g>
	<g>
		<g>
			<g>
				<path d="M227.319,179.924c-25.383,0-50.765,0-76.147,0c-2.579,0-2.579,4,0,4c25.383,0,50.765,0,76.147,0
					C229.898,183.924,229.898,179.924,227.319,179.924L227.319,179.924z"/>
			</g>
		</g>
		<g>
			<g>
				<path d="M226.197,183.825c6.771,7.287,6.771,17.771,0,25.059c-1.753,1.887,1.069,4.722,2.828,2.828
					c8.274-8.904,8.274-21.811,0-30.715C227.267,179.104,224.444,181.938,226.197,183.825L226.197,183.825z"/>
			</g>
		</g>
	</g>
	<g>
		<g>
			<g>
				<path d="M227.319,208.553c-25.383,0-50.765,0-76.147,0c-2.579,0-2.579,4,0,4c25.383,0,50.765,0,76.147,0
					C229.898,212.553,229.898,208.553,227.319,208.553L227.319,208.553z"/>
			</g>
		</g>
		<g>
			<g>
				<path d="M149.322,241.18c25.999,0,51.998,0,77.997,0c2.579,0,2.579-4,0-4c-25.999,0-51.998,0-77.997,0
					C146.743,237.18,146.743,241.18,149.322,241.18L149.322,241.18z"/>
			</g>
		</g>
		<g>
			<g>
				<path d="M226.197,212.453c6.771,7.287,6.771,17.771,0,25.059c-1.753,1.887,1.069,4.722,2.828,2.828
					c8.274-8.904,8.274-21.811,0-30.715C227.267,207.731,224.444,210.566,226.197,212.453L226.197,212.453z"/>
			</g>
		</g>
	</g>
	<g>
		<g>
			<path d="M125.304,155.297c7.909,0,15.817,0,23.727,0c2.579,0,2.579-4,0-4c-7.909,0-15.817,0-23.727,0
				C122.724,151.297,122.724,155.297,125.304,155.297L125.304,155.297z"/>
		</g>
	</g>
	<g>
		<g>
			<path d="M147.322,153.589c0,28.433,0,56.866,0,85.299c0,2.579,4,2.579,4,0c0-28.433,0-56.866,0-85.299
				C151.322,151.01,147.322,151.01,147.322,153.589L147.322,153.589z"/>
		</g>
	</g>
	<g>
		<g>
			<path d="M109.604,196.354c0.01-0.194-0.168,0.222,0.068-0.067c-0.17,0.168-0.194,0.193-0.073,0.076
				c0.25-0.164-0.307,0.018-0.005,0.001c0.172-0.009-0.209-0.157,0.067,0.068c-0.168-0.171-0.193-0.194-0.076-0.073
				c0.164,0.25-0.018-0.307-0.001-0.005c0.009,0.172,0.158-0.209-0.068,0.067c0.17-0.168,0.194-0.193,0.073-0.076
				c-0.25,0.164,0.307-0.018,0.005-0.001c-0.172,0.009,0.209,0.157-0.067-0.068c0.168,0.171,0.193,0.194,0.076,0.073
				C109.438,196.1,109.62,196.656,109.604,196.354c0.059,1.088,0.865,2,2,2c1.046,0,2.059-0.91,2-2
				c-0.122-2.265-1.746-3.888-4.01-4.01c-2.259-0.122-3.898,1.928-4.01,4.01c-0.122,2.259,1.929,3.897,4.01,4.01
				c2.259,0.122,3.898-1.928,4.01-4.01c0.059-1.09-0.954-2-2-2C110.469,194.354,109.663,195.267,109.604,196.354z"/>
		</g>
	</g>
	<g>
		<g>
			<path d="M109.733,194.271c-0.046,0-0.093,0-0.14,0c-1.09,0-2,0.91-2,2s0.91,2,2,2c0.046,0,0.093,0,0.14,0c1.09,0,2-0.91,2-2
				S110.824,194.271,109.733,194.271L109.733,194.271z"/>
		</g>
	</g>
	<g>
		<g>
			<path d="M143.654,96.041c-0.342,10.13-7.993,17.782-18.124,18.124c-10.125,0.341-17.799-8.507-18.123-18.124
				c-0.341-10.125,8.507-17.799,18.123-18.124C135.656,77.576,143.33,86.424,143.654,96.041c0.087,2.572,4.087,2.581,4,0
				c-0.416-12.347-9.777-21.708-22.124-22.124c-12.34-0.416-21.728,10.403-22.123,22.124c-0.416,12.339,10.402,21.729,22.123,22.124
				c12.34,0.416,21.729-10.402,22.124-22.124C147.741,93.46,143.741,93.468,143.654,96.041z"/>
		</g>
	</g>
	<g>
		<g>
			<path d="M127.465,116.164c0-13.416,0-26.831,0-40.246c0-2.58-4-2.58-4,0c0,13.416,0,26.831,0,40.246
				C123.465,118.743,127.465,118.743,127.465,116.164L127.465,116.164z"/>
		</g>
	</g>
	<g>
		<g>
			<path d="M215.687,86.732c0-12.282,0-24.564,0-36.847c0-2.58-4-2.58-4,0c0,12.282,0,24.564,0,36.847
				C211.687,89.312,215.687,89.312,215.687,86.732L215.687,86.732z"/>
		</g>
	</g>
	<g>
		<g>
			<path d="M213.395,47.885c-7.984,0-15.97,0-23.954,0c-2.579,0-2.579,4,0,4c7.984,0,15.97,0,23.954,0
				C215.974,51.885,215.974,47.885,213.395,47.885L213.395,47.885z"/>
		</g>
	</g>
	<g>
		<g>
			<path d="M187.148,49.885c0,6.533,0,13.066,0,19.599c0,2.58,4,2.58,4,0c0-6.533,0-13.066,0-19.599
				C191.148,47.306,187.148,47.306,187.148,49.885L187.148,49.885z"/>
		</g>
	</g>
	<g>
		<path d="M199.266,40.919c0,0-0.171,0.01-0.5-0.051c-0.313-0.074-0.822-0.163-1.377-0.479c-0.58-0.284-1.231-0.756-1.879-1.454
			c-0.59-0.715-1.195-1.651-1.551-2.757c-0.097-0.275-0.182-0.562-0.271-0.856c-0.076-0.293-0.112-0.587-0.17-0.893
			c-0.055-0.305-0.097-0.619-0.142-0.94c-0.01-0.311-0.021-0.627-0.031-0.948c-0.032-0.651-0.007-1.315,0.08-1.961
			c0.072-0.651,0.135-1.35,0.304-1.987c0.143-0.654,0.309-1.32,0.491-1.987c0.215-0.639,0.44-1.287,0.688-1.931
			c0.459-1.313,1.136-2.493,1.726-3.746c0.464-0.94,1.251-2.308,1.685-3.254c0.23-0.509,0.478-1.007,0.738-1.498
			c0.216-0.512,0.412-1.027,0.645-1.525c0.258-0.501,0.354-0.993,0.556-1.475c0.085-0.24,0.191-0.483,0.258-0.718
			c0.058-0.233,0.113-0.465,0.183-0.695c0.065-0.232,0.131-0.461,0.195-0.686c0.035-0.219,0.063-0.437,0.108-0.654
			c0.037-0.215,0.096-0.438,0.116-0.646c0.012-0.204,0.018-0.406,0.039-0.61c0.077-0.819-0.024-1.54-0.146-2.224
			c-0.181-0.642-0.383-1.26-0.666-1.712c-0.535-0.938-1.079-1.413-1.079-1.413s0.175-0.009,0.501,0.05
			c0.313,0.073,0.822,0.162,1.378,0.477c0.582,0.283,1.233,0.756,1.882,1.453c0.592,0.715,1.198,1.652,1.554,2.758
			c0.098,0.275,0.181,0.562,0.271,0.857c0.076,0.293,0.113,0.587,0.171,0.894c0.056,0.305,0.096,0.619,0.141,0.94
			c0.011,0.312,0.021,0.628,0.032,0.949c0.029,0.651,0.007,1.316-0.08,1.961c-0.072,0.652-0.138,1.35-0.305,1.988
			c-0.142,0.655-0.313,1.317-0.493,1.988c-0.221,0.661-0.46,1.328-0.72,1.994c-0.516,1.418-1.041,2.292-1.7,3.68l-0.84,1.604
			c-0.276,0.536-0.596,1.051-0.819,1.583c-0.242,0.53-0.504,1.048-0.77,1.561c-0.214,0.516-0.415,1.027-0.646,1.526
			c-0.256,0.502-0.356,0.993-0.557,1.476c-0.084,0.241-0.191,0.484-0.257,0.719c-0.057,0.233-0.115,0.465-0.184,0.695
			c-0.066,0.232-0.131,0.461-0.195,0.687c-0.033,0.219-0.064,0.437-0.108,0.654c-0.037,0.216-0.096,0.438-0.116,0.646
			c-0.01,0.204-0.018,0.406-0.038,0.611c-0.077,0.819,0.026,1.542,0.149,2.226c0.182,0.642,0.384,1.26,0.668,1.711
			C198.723,40.447,199.266,40.919,199.266,40.919z"/>
	</g>
	<g>
		<path d="M205.068,44.919c0,0-0.111,0.029-0.333,0.015c-0.211-0.021-0.558-0.047-0.939-0.229c-0.393-0.167-0.864-0.447-1.298-0.901
			c-0.423-0.448-0.845-1.057-1.118-1.757c-0.162-0.356-0.269-0.73-0.359-1.115c-0.112-0.397-0.159-0.797-0.198-1.204
			c-0.058-0.418-0.061-0.839-0.045-1.251c0.007-0.417,0.028-0.862,0.097-1.268c0.103-0.849,0.3-1.686,0.56-2.497
			c0.118-0.42,0.271-0.811,0.437-1.199l0.467-1.082c0.164-0.349,0.324-0.7,0.498-1.042c0.173-0.349,0.36-0.693,0.468-0.95
			c0.131-0.279,0.273-0.552,0.428-0.82c0.129-0.283,0.246-0.569,0.396-0.844c0.164-0.28,0.229-0.543,0.369-0.806
			c0.143-0.267,0.23-0.52,0.33-0.763c0.119-0.252,0.207-0.494,0.28-0.72c0.045-0.119,0.089-0.236,0.132-0.351
			c0.031-0.109,0.051-0.216,0.089-0.327c0.145-0.45,0.199-0.851,0.236-1.253c0.018-0.387,0.005-0.777-0.076-1.089
			c-0.081-0.31-0.171-0.591-0.265-0.763c-0.088-0.179-0.153-0.279-0.153-0.279s0.115-0.028,0.334-0.015
			c0.211,0.019,0.558,0.046,0.941,0.227c0.394,0.166,0.865,0.447,1.301,0.9c0.424,0.448,0.847,1.058,1.121,1.759
			c0.161,0.356,0.27,0.73,0.359,1.116c0.11,0.398,0.16,0.798,0.199,1.205c0.055,0.418,0.06,0.84,0.044,1.251
			c-0.006,0.417-0.031,0.862-0.097,1.269c-0.104,0.834-0.3,1.696-0.588,2.558c-0.14,0.461-0.275,0.81-0.425,1.158
			c-0.144,0.356-0.303,0.707-0.459,1.06l-0.261,0.555l-0.229,0.464c-0.156,0.309-0.326,0.611-0.455,0.909
			c-0.14,0.299-0.295,0.591-0.453,0.88c-0.128,0.286-0.249,0.569-0.398,0.845c-0.161,0.281-0.231,0.543-0.37,0.806
			c-0.143,0.267-0.228,0.521-0.33,0.764c-0.119,0.252-0.204,0.495-0.279,0.721c-0.045,0.119-0.089,0.236-0.132,0.352
			c-0.03,0.109-0.052,0.216-0.089,0.328c-0.144,0.451-0.198,0.852-0.233,1.255c-0.017,0.388-0.004,0.777,0.079,1.089
			c0.081,0.309,0.172,0.591,0.267,0.761C204.999,44.818,205.068,44.919,205.068,44.919z"/>
	</g>
	<g>
		<g>
			<path d="M95.917,153.297c0-3.683,0-7.364,0-11.047c0-2.579-4-2.579-4,0c0,3.683,0,7.364,0,11.047
				C91.917,155.876,95.917,155.876,95.917,153.297L95.917,153.297z"/>
		</g>
	</g>
	<g>
		<g>
			<path d="M94.014,144.25c10.387,0,20.773,0,31.16,0c2.58,0,2.58-4,0-4c-10.387,0-20.773,0-31.16,0
				C91.434,140.25,91.434,144.25,94.014,144.25L94.014,144.25z"/>
		</g>
	</g>
	<g>
		<g>
			<path d="M158.723,153.297c0-3.683,0-7.364,0-11.047c0-2.579-4-2.579-4,0c0,3.683,0,7.364,0,11.047
				C154.723,155.876,158.723,155.876,158.723,153.297L158.723,153.297z"/>
		</g>
	</g>
	<g>
		<g>
			<path d="M156.625,140.25c-10.387,0-20.773,0-31.16,0c-2.58,0-2.58,4,0,4c10.386,0,20.773,0,31.16,0
				C159.204,144.25,159.204,140.25,156.625,140.25L156.625,140.25z"/>
		</g>
	</g>
</g>
</svg>
