<?xml version="1.0" encoding="utf-8"?>
<!-- Generator: Adobe Illustrator 16.0.0, SVG Export Plug-In . SVG Version: 6.00 Build 0)  -->
<!DOCTYPE svg PUBLIC "-//W3C//DTD SVG 1.1//EN" "http://www.w3.org/Graphics/SVG/1.1/DTD/svg11.dtd">
<svg version="1.1" xmlns="http://www.w3.org/2000/svg" xmlns:xlink="http://www.w3.org/1999/xlink" x="0px" y="0px" width="640px"
	 height="480px" viewBox="0 0 640 480" enable-background="new 0 0 640 480" xml:space="preserve">
<g id="Layer_3">
	<g>
		<g>
			<path d="M114.484,253.158c37.148-26.062,74.296-52.125,111.445-78.187c31.981-22.438,63.962-44.875,95.944-67.313
				c2.618-1.836,0.123-6.174-2.523-4.317c-37.148,26.063-74.296,52.125-111.445,78.188c-31.981,22.438-63.962,44.875-95.944,67.313
				C109.343,250.678,111.838,255.016,114.484,253.158L114.484,253.158z"/>
		</g>
	</g>
	<g>
		<g>
			<path d="M114.762,220.159c39.838-28.083,79.676-56.167,119.514-84.25c17.051-12.02,34.102-24.04,51.153-36.059
				c2.613-1.842,0.119-6.18-2.523-4.317c-39.838,28.083-79.676,56.167-119.514,84.25c-17.051,12.02-34.102,24.04-51.153,36.059
				C109.625,217.683,112.12,222.021,114.762,220.159L114.762,220.159z"/>
		</g>
	</g>
	<g>
		<g>
			<path d="M116,251c0-11,0-22,0-33c0-3.224-5-3.224-5,0c0,11,0,22,0,33C111,254.225,116,254.225,116,251L116,251z"/>
		</g>
	</g>
	<g>
		<g>
			<path d="M530,251c0-11,0-22,0-33c0-3.224-5-3.224-5,0c0,11,0,22,0,33C525,254.225,530,254.225,530,251L530,251z"/>
		</g>
	</g>
	<g>
		<g>
			<path d="M528.873,248.842c-37.148-26.063-74.296-52.125-111.444-78.188c-31.981-22.438-63.963-44.875-95.944-67.313
				c-2.646-1.857-5.141,2.481-2.523,4.317c37.148,26.063,74.296,52.125,111.444,78.188c31.981,22.438,63.963,44.875,95.944,67.312
				C528.996,255.016,531.491,250.678,528.873,248.842L528.873,248.842z"/>
		</g>
	</g>
	<g>
		<g>
			<path d="M285.429,99.85c4.57-3.309,9.258-6.462,14.003-9.513c3.623-2.33,7.313-4.554,11.1-6.607
				c2.798-1.516,6.2-3.58,9.468-3.729c2.739-0.125,5.974,1.868,8.326,3.026c4.093,2.014,8.027,4.358,11.92,6.728
				c5.227,3.182,10.358,6.536,15.392,10.015c13.352,9.228,26.529,18.72,39.79,28.078c43.225,30.503,86.449,61.007,129.674,91.51
				c0.379,0.267,0.758,0.535,1.137,0.802c2.641,1.864,5.135-2.474,2.523-4.317c-39.955-28.196-79.911-56.393-119.866-84.589
				c-16.587-11.705-33.173-23.41-49.759-35.115c-8.225-5.804-16.776-11.268-25.632-16.053c-5.135-2.775-11.012-6.192-16.985-4.471
				c-7.652,2.205-14.802,7.281-21.404,11.563c-4.136,2.683-8.218,5.464-12.211,8.356C280.32,97.404,282.812,101.745,285.429,99.85
				L285.429,99.85z"/>
		</g>
	</g>
</g>
<g id="Layer_2">
	<g display="none">
		<g display="inline">
			<g>
				<path d="M80,77c37,0,74,0,111,0c3.224,0,3.224-5,0-5c-37,0-74,0-111,0C76.776,72,76.776,77,80,77L80,77z"/>
			</g>
		</g>
		<g display="inline">
			<g>
				<path d="M191,121c-37,0-74,0-111,0c-3.224,0-3.224,5,0,5c37,0,74,0,111,0C194.224,126,194.224,121,191,121L191,121z"/>
			</g>
		</g>
		<g display="inline">
			<g>
				<path d="M77.732,73.566c-13.885,14.488-13.886,36.778,0,51.266c2.234,2.332,5.766-1.208,3.535-3.535
					c-11.988-12.509-11.988-31.686,0-44.195C83.498,74.774,79.967,71.234,77.732,73.566L77.732,73.566z"/>
			</g>
		</g>
	</g>
	<g>
		<g>
			<g>
				<path d="M212.667,185c16.667,0,33.333,0,50,0c3.224,0,3.224-5,0-5c-16.667,0-33.333,0-50,0C209.443,180,209.443,185,212.667,185
					L212.667,185z"/>
			</g>
		</g>
		<g>
			<g>
				<path d="M378.667,185c16.667,0,33.333,0,50,0c3.225,0,3.225-5,0-5c-16.667,0-33.333,0-50,0C375.442,180,375.442,185,378.667,185
					L378.667,185z"/>
			</g>
		</g>
	</g>
	<g>
		<g>
			<g>
				<path d="M281.833,136c25.833,0,51.667,0,77.5,0c3.225,0,3.225-5,0-5c-25.834,0-51.667,0-77.5,0
					C278.609,131,278.609,136,281.833,136L281.833,136z"/>
			</g>
		</g>
		<g>
			<g>
				<path d="M359.334,180c-25.834,0-51.667,0-77.5,0c-3.224,0-3.224,5,0,5c25.833,0,51.667,0,77.5,0
					C362.559,185,362.559,180,359.334,180L359.334,180z"/>
			</g>
		</g>
	</g>
	<g>
		<g>
			<g>
				<path d="M146,234c49.968,0,99.937,0,149.905,0c8.236,0,16.471,0,24.707,0c3.225,0,3.225-5,0-5c-49.968,0-99.937,0-149.905,0
					c-8.236,0-16.471,0-24.707,0C142.776,229,142.776,234,146,234L146,234z"/>
			</g>
		</g>
		<g>
			<g>
				<path d="M143.732,230.566c-13.885,14.489-13.885,36.778,0,51.266c2.234,2.332,5.765-1.208,3.535-3.535
					c-11.988-12.51-11.988-31.687,0-44.196C149.498,231.774,145.967,228.234,143.732,230.566L143.732,230.566z"/>
			</g>
		</g>
	</g>
	<g>
		<g>
			<g>
				<path d="M146,283c44.497,0,88.993,0,133.49,0c0.003,0,0.006,0,0.01,0c3.224,0,3.224-5,0-5c-44.497,0-88.993,0-133.49,0
					c-0.003,0-0.006,0-0.01,0C142.776,278,142.776,283,146,283L146,283z"/>
			</g>
		</g>
		<g>
			<g>
				<path d="M143.732,279.566c-13.885,14.488-13.885,36.777,0,51.266c2.234,2.332,5.765-1.208,3.535-3.535
					c-11.988-12.51-11.988-31.686,0-44.195C149.498,280.774,145.967,277.234,143.732,279.566L143.732,279.566z"/>
			</g>
		</g>
	</g>
	<g>
		<g>
			<g>
				<path d="M146,332c43.444,0,86.889,0,130.333,0c3.224,0,3.224-5,0-5c-43.444,0-86.889,0-130.333,0
					C142.776,327,142.776,332,146,332L146,332z"/>
			</g>
		</g>
		<g>
			<g>
				<path d="M276.333,376c-43.444,0-86.889,0-130.333,0c-3.224,0-3.224,5,0,5c43.444,0,86.889,0,130.333,0
					C279.558,381,279.558,376,276.333,376L276.333,376z"/>
			</g>
		</g>
		<g>
			<g>
				<path d="M143.732,328.566c-13.885,14.488-13.885,36.777,0,51.266c2.234,2.332,5.765-1.208,3.535-3.535
					c-11.988-12.51-11.988-31.686,0-44.195C149.498,329.774,145.967,326.234,143.732,328.566L143.732,328.566z"/>
			</g>
		</g>
	</g>
	<g>
		<g>
			<g>
				<path d="M146,381c43.444,0,86.889,0,130.333,0c3.224,0,3.224-5,0-5c-43.444,0-86.889,0-130.333,0
					C142.776,376,142.776,381,146,381L146,381z"/>
			</g>
		</g>
		<g>
			<g>
				<path d="M363,425c-48.27,0-96.539,0-144.809,0c-24.064,0-48.127,0-72.191,0c-3.224,0-3.224,5,0,5c48.27,0,96.539,0,144.809,0
					c24.064,0,48.128,0,72.191,0C366.225,430,366.225,425,363,425L363,425z"/>
			</g>
		</g>
		<g>
			<g>
				<path d="M143.732,377.566c-13.885,14.488-13.885,36.777,0,51.266c2.234,2.332,5.765-1.208,3.535-3.535
					c-11.988-12.51-11.988-31.686,0-44.195C149.498,378.774,145.967,375.234,143.732,377.566L143.732,377.566z"/>
			</g>
		</g>
	</g>
	<g>
		<g>
			<path d="M320.611,278c-13.537,0-27.074,0-40.611,0c-3.224,0-3.224,5,0,5c13.537,0,27.074,0,40.611,0
				C323.836,283,323.836,278,320.611,278L320.611,278z"/>
		</g>
	</g>
	<g>
		<g>
			<path d="M277,281c0,47.631,0,95.263,0,142.894c0,1.036,0,2.071,0,3.106c0,3.225,5,3.225,5,0c0-47.631,0-95.263,0-142.894
				c0-1.036,0-2.071,0-3.106C282,277.775,277,277.775,277,281L277,281z"/>
		</g>
	</g>
	<g>
		<g>
			<g>
				<path d="M494.834,229c-49.969,0-99.937,0-149.905,0c-8.235,0-16.471,0-24.706,0c-3.224,0-3.224,5,0,5
					c49.969,0,99.937,0,149.905,0c8.235,0,16.471,0,24.706,0C498.059,234,498.059,229,494.834,229L494.834,229z"/>
			</g>
		</g>
		<g>
			<g>
				<path d="M493.566,234.101c11.988,12.509,11.988,31.686,0,44.196c-2.23,2.327,1.301,5.867,3.535,3.535
					c13.886-14.488,13.885-36.777,0-51.266C494.867,228.234,491.336,231.774,493.566,234.101L493.566,234.101z"/>
			</g>
		</g>
	</g>
	<g>
		<g>
			<g>
				<path d="M494.834,278c-44.497,0-88.993,0-133.49,0c-0.003,0-0.007,0-0.01,0c-3.225,0-3.225,5,0,5c44.497,0,88.993,0,133.49,0
					c0.003,0,0.007,0,0.01,0C498.059,283,498.059,278,494.834,278L494.834,278z"/>
			</g>
		</g>
		<g>
			<g>
				<path d="M494.834,332c3.225,0,3.225-5,0-5S491.609,332,494.834,332L494.834,332z"/>
			</g>
		</g>
		<g>
			<g>
				<path d="M364.5,332c3.225,0,3.225-5,0-5S361.275,332,364.5,332L364.5,332z"/>
			</g>
		</g>
		<g>
			<g>
				<path d="M493.566,283.102c11.988,12.51,11.988,31.686,0,44.195c-2.23,2.327,1.301,5.867,3.535,3.535
					c13.885-14.488,13.885-36.777,0-51.266C494.867,277.234,491.336,280.774,493.566,283.102L493.566,283.102z"/>
			</g>
		</g>
	</g>
	<g>
		<g>
			<g>
				<path d="M494.834,327c-43.444,0-86.89,0-130.334,0c-3.225,0-3.225,5,0,5c43.444,0,86.89,0,130.334,0
					C498.059,332,498.059,327,494.834,327L494.834,327z"/>
			</g>
		</g>
		<g>
			<g>
				<path d="M493.566,332.102c11.988,12.51,11.988,31.686,0,44.195c-2.23,2.327,1.301,5.867,3.535,3.535
					c13.885-14.488,13.885-36.777,0-51.266C494.867,326.234,491.336,329.774,493.566,332.102L493.566,332.102z"/>
			</g>
		</g>
	</g>
	<g>
		<g>
			<g>
				<path d="M494.834,376c-43.444,0-86.89,0-130.334,0c-3.225,0-3.225,5,0,5c43.444,0,86.89,0,130.334,0
					C498.059,381,498.059,376,494.834,376L494.834,376z"/>
			</g>
		</g>
		<g>
			<g>
				<path d="M361.334,430c44.497,0,88.993,0,133.49,0c0.003,0,0.007,0,0.01,0c3.225,0,3.225-5,0-5c-44.497,0-88.993,0-133.49,0
					c-0.003,0-0.007,0-0.01,0C358.109,425,358.109,430,361.334,430L361.334,430z"/>
			</g>
		</g>
		<g>
			<g>
				<path d="M493.566,381.102c11.988,12.51,11.988,31.686,0,44.195c-2.23,2.327,1.301,5.867,3.535,3.535
					c13.885-14.488,13.885-36.777,0-51.266C494.867,375.234,491.336,378.774,493.566,381.102L493.566,381.102z"/>
			</g>
		</g>
	</g>
	<g>
		<g>
			<path d="M320.223,283c13.537,0,27.074,0,40.611,0c3.225,0,3.225-5,0-5c-13.537,0-27.074,0-40.611,0
				C316.999,278,316.999,283,320.223,283L320.223,283z"/>
		</g>
	</g>
	<g>
		<g>
			<path d="M358.834,281c0,47.631,0,95.263,0,142.894c0,1.036,0,2.071,0,3.106c0,3.225,5,3.225,5,0c0-47.631,0-95.263,0-142.894
				c0-1.036,0-2.071,0-3.106C363.834,277.775,358.834,277.775,358.834,281L358.834,281z"/>
		</g>
	</g>
	<g>
		<g>
			<path d="M294.274,354.199c-0.066,1.223-1.816,1.223-1.882,0C292.327,352.975,294.209,352.983,294.274,354.199
				c0.173,3.207,5.174,3.224,5,0c-0.181-3.354-2.586-5.76-5.941-5.94c-3.347-0.181-5.775,2.856-5.941,5.94
				c-0.18,3.348,2.857,5.774,5.941,5.94c3.347,0.181,5.775-2.856,5.941-5.94C299.448,350.976,294.447,350.992,294.274,354.199z"/>
		</g>
	</g>
	<g>
		<g>
			<path d="M293.572,351.557c-0.08,0-0.159,0-0.239,0c-1.363,0-2.5,1.137-2.5,2.5s1.137,2.5,2.5,2.5c0.08,0,0.159,0,0.239,0
				c1.363,0,2.5-1.137,2.5-2.5S294.935,351.557,293.572,351.557L293.572,351.557z"/>
		</g>
	</g>
	<g>
		<g>
			<path d="M356.834,182.5c-0.353,20.01-16.213,35.871-36.223,36.223c-20.011,0.352-35.88-16.744-36.223-36.223
				c-0.352-20.011,16.744-35.88,36.223-36.223C340.622,145.925,356.491,163.021,356.834,182.5c0.057,3.221,5.057,3.226,5,0
				c-0.383-21.755-16.839-39.218-38.457-41.125c-21.184-1.869-41.015,14.724-43.604,35.647
				c-2.687,21.708,11.896,41.817,33.36,46.015c21.269,4.159,41.931-9.896,47.453-30.437c0.881-3.275,1.188-6.722,1.247-10.1
				C361.891,179.274,356.891,179.279,356.834,182.5z"/>
		</g>
	</g>
	<g>
		<g>
			<path d="M323,221c0-25.667,0-51.333,0-77c0-3.224-5-3.224-5,0c0,25.667,0,51.333,0,77C318,224.224,323,224.224,323,221L323,221z"
				/>
		</g>
	</g>
	<g>
		<g>
			<path d="M474,178c0-24.833,0-49.667,0-74.5c0-3.224-5-3.224-5,0c0,24.833,0,49.667,0,74.5C469,181.224,474,181.224,474,178
				L474,178z"/>
		</g>
	</g>
	<g>
		<g>
			<path d="M471,101c-13.667,0-27.333,0-41,0c-3.225,0-3.225,5,0,5c13.667,0,27.333,0,41,0C474.225,106,474.225,101,471,101L471,101
				z"/>
		</g>
	</g>
	<g>
		<g>
			<path d="M427,103.5c0,14.833,0,29.667,0,44.5c0,3.224,5,3.224,5,0c0-14.833,0-29.667,0-44.5C432,100.276,427,100.276,427,103.5
				L427,103.5z"/>
		</g>
	</g>
	<g>
		<path d="M446.817,95c0,0-0.292,0.014-0.853-0.094c-0.27-0.064-0.626-0.125-1.013-0.266c-0.2-0.068-0.415-0.142-0.645-0.22
			c-0.217-0.106-0.447-0.219-0.69-0.338c-1.001-0.479-2.077-1.318-3.183-2.501c-1-1.223-2.025-2.821-2.624-4.707
			c-0.162-0.469-0.305-0.958-0.455-1.46c-0.128-0.499-0.188-1-0.284-1.522c-0.093-0.521-0.163-1.056-0.236-1.603
			c-0.017-0.531-0.033-1.07-0.05-1.617c-0.017-0.55-0.017-1.11-0.01-1.679c0.02-0.562,0.104-1.1,0.155-1.665
			c0.127-1.111,0.234-2.302,0.524-3.391c0.247-1.116,0.533-2.252,0.845-3.39c0.37-1.091,0.756-2.196,1.182-3.297
			c0.396-1.124,0.871-2.187,1.392-3.235c0.492-1.002,0.986-2.009,1.48-3.015c0.505-0.985,1.006-1.972,1.528-2.943
			c0.258-0.487,0.516-0.974,0.787-1.451c0.283-0.489,0.426-0.889,0.646-1.335c0.397-0.875,0.819-1.731,1.265-2.575
			c0.367-0.88,0.704-1.765,1.101-2.62c0.438-0.861,0.603-1.708,0.944-2.536c0.144-0.414,0.325-0.832,0.438-1.235
			c0.098-0.401,0.191-0.801,0.308-1.196c0.111-0.399,0.222-0.793,0.331-1.181c0.057-0.377,0.104-0.751,0.179-1.125
			c0.062-0.371,0.159-0.753,0.193-1.111c0.018-0.351,0.024-0.698,0.059-1.049c0.123-1.408-0.063-2.647-0.282-3.819
			c-0.312-1.107-0.694-2.138-1.174-2.917c-0.448-0.811-0.928-1.413-1.28-1.809c-0.354-0.395-0.578-0.597-0.578-0.597
			c0,0,0.298-0.012,0.854,0.092c0.27,0.064,0.627,0.124,1.014,0.265c0.2,0.068,0.416,0.141,0.646,0.219
			c0.217,0.106,0.448,0.218,0.691,0.337c1.002,0.479,2.08,1.317,3.188,2.5c1.001,1.224,2.027,2.823,2.628,4.71
			c0.163,0.469,0.303,0.958,0.455,1.46c0.129,0.5,0.189,1.001,0.286,1.524c0.094,0.521,0.159,1.056,0.235,1.604
			c0.017,0.532,0.033,1.071,0.051,1.618c0.019,0.551,0.012,1.11,0.008,1.68c-0.019,0.562-0.103,1.101-0.154,1.666
			c-0.126,1.111-0.239,2.301-0.526,3.391c-0.245,1.118-0.538,2.248-0.848,3.393c-0.378,1.127-0.789,2.265-1.232,3.401
			c-0.219,0.55-0.433,1.189-0.662,1.671c-0.224,0.501-0.463,0.997-0.703,1.494c-0.473,0.997-0.972,1.984-1.465,2.975l-0.788,1.532
			l-0.726,1.371c-0.24,0.458-0.49,0.909-0.746,1.357c-0.263,0.447-0.438,0.907-0.661,1.358c-0.415,0.91-0.861,1.8-1.315,2.679
			c-0.366,0.886-0.709,1.765-1.104,2.623c-0.437,0.862-0.606,1.708-0.946,2.537c-0.144,0.414-0.325,0.833-0.438,1.237
			c-0.094,0.402-0.193,0.801-0.309,1.197c-0.111,0.399-0.222,0.793-0.329,1.182c-0.055,0.377-0.106,0.751-0.181,1.126
			c-0.061,0.371-0.158,0.754-0.191,1.111c-0.016,0.351-0.026,0.699-0.06,1.05c-0.121,1.409,0.066,2.65,0.287,3.822
			c0.313,1.107,0.698,2.138,1.179,2.917c0.449,0.81,0.93,1.411,1.283,1.806C446.587,94.795,446.817,95,446.817,95z"/>
	</g>
	<g>
		<path d="M456.75,95c0,0-0.189,0.047-0.566,0.018c-0.36-0.035-0.939-0.096-1.601-0.395c-0.358-0.126-0.674-0.353-1.074-0.591
			c-0.358-0.259-0.745-0.582-1.112-0.962c-0.713-0.766-1.425-1.804-1.884-2.996c-0.128-0.297-0.242-0.612-0.353-0.933
			c-0.082-0.316-0.164-0.638-0.249-0.965c-0.084-0.331-0.158-0.678-0.216-1.022c-0.037-0.337-0.075-0.68-0.113-1.027
			c-0.041-0.351-0.065-0.708-0.084-1.073c-0.005-0.352,0.01-0.698,0.017-1.057c0.02-0.708,0.037-1.472,0.163-2.163
			c0.105-0.708,0.23-1.434,0.375-2.161c0.186-0.691,0.381-1.392,0.597-2.093c0.203-0.715,0.466-1.383,0.749-2.045l0.8-1.851
			c0.279-0.598,0.553-1.197,0.852-1.783l0.446-0.877c0.163-0.298,0.225-0.502,0.354-0.753c0.225-0.479,0.466-0.952,0.72-1.418
			c0.22-0.487,0.436-0.975,0.677-1.452c0.266-0.485,0.403-0.933,0.633-1.388c0.105-0.228,0.21-0.453,0.313-0.676
			c0.076-0.214,0.148-0.429,0.243-0.642c0.092-0.217,0.182-0.431,0.271-0.641c0.074-0.205,0.116-0.4,0.198-0.603
			c0.074-0.205,0.147-0.407,0.22-0.605c0.052-0.189,0.083-0.373,0.146-0.565c0.051-0.188,0.124-0.391,0.156-0.57
			c0.029-0.177,0.052-0.353,0.094-0.537c0.103-0.384,0.074-0.689,0.123-1.05c0.028-0.345-0.013-0.648-0.017-0.98
			c-0.047-0.292-0.073-0.614-0.148-0.874c-0.131-0.54-0.3-1.008-0.461-1.301c-0.152-0.303-0.266-0.47-0.266-0.47
			s0.195-0.045,0.566-0.02c0.361,0.034,0.941,0.094,1.604,0.393c0.359,0.125,0.676,0.353,1.076,0.591
			c0.36,0.258,0.746,0.582,1.116,0.961c0.714,0.766,1.427,1.806,1.888,2.999c0.129,0.298,0.239,0.613,0.353,0.935
			c0.082,0.316,0.165,0.638,0.25,0.966c0.086,0.331,0.155,0.678,0.216,1.023c0.037,0.337,0.075,0.681,0.114,1.028
			c0.042,0.352,0.061,0.709,0.082,1.074c0.005,0.352-0.01,0.698-0.016,1.058c-0.02,0.708-0.039,1.473-0.165,2.163
			c-0.106,0.71-0.231,1.432-0.379,2.163c-0.194,0.725-0.407,1.458-0.639,2.193c-0.111,0.353-0.243,0.773-0.359,1.066l-0.369,0.912
			c-0.246,0.609-0.52,1.21-0.787,1.813l-0.444,0.949l-0.395,0.796c-0.267,0.53-0.558,1.049-0.778,1.563
			c-0.241,0.514-0.5,1.019-0.762,1.519c-0.225,0.491-0.439,0.976-0.681,1.454c-0.267,0.485-0.406,0.933-0.636,1.388
			c-0.104,0.228-0.209,0.454-0.312,0.677c-0.073,0.215-0.15,0.429-0.245,0.643c-0.091,0.217-0.181,0.431-0.27,0.642
			c-0.071,0.205-0.118,0.401-0.198,0.603c-0.074,0.206-0.147,0.408-0.219,0.607c-0.049,0.189-0.084,0.374-0.146,0.566
			c-0.05,0.188-0.122,0.391-0.154,0.57c-0.028,0.176-0.053,0.354-0.094,0.538c-0.102,0.385-0.071,0.689-0.121,1.051
			c-0.025,0.345,0.015,0.649,0.02,0.98c0.049,0.292,0.075,0.614,0.15,0.873c0.134,0.539,0.303,1.007,0.465,1.298
			C456.631,94.83,456.75,95,456.75,95z"/>
	</g>
	<g>
		<g>
			<path d="M269,280.5c0-3.667,0-7.333,0-11c0-3.225-5-3.225-5,0c0,3.667,0,7.333,0,11C264,283.725,269,283.725,269,280.5L269,280.5
				z"/>
		</g>
	</g>
	<g>
		<g>
			<path d="M266.667,272c17.778,0,35.555,0,53.333,0c3.225,0,3.225-5,0-5c-17.778,0-35.555,0-53.333,0
				C263.443,267,263.443,272,266.667,272L266.667,272z"/>
		</g>
	</g>
	<g>
		<g>
			<path d="M376.5,280.5c0-3.667,0-7.333,0-11c0-3.225-5-3.225-5,0c0,3.667,0,7.333,0,11C371.5,283.725,376.5,283.725,376.5,280.5
				L376.5,280.5z"/>
		</g>
	</g>
	<g>
		<g>
			<path d="M373.833,267c-17.777,0-35.556,0-53.333,0c-3.224,0-3.224,5,0,5c17.777,0,35.556,0,53.333,0
				C377.058,272,377.058,267,373.833,267L373.833,267z"/>
		</g>
	</g>
</g>
</svg>
