<?xml version="1.0" encoding="UTF-8"?><svg id="Layer_2_copy_2" xmlns="http://www.w3.org/2000/svg" viewBox="0 0 1000 1000"><defs><style>.cls-1{stroke-dasharray:0 0 3 4;}.cls-1,.cls-2,.cls-3,.cls-4{stroke-linejoin:round;stroke-width:2px;}.cls-1,.cls-2,.cls-4{stroke:#2c2825;}.cls-1,.cls-3,.cls-4{fill:none;}.cls-2{fill:#2c2825;}.cls-3{stroke:#fff;}.cls-5{fill:#d6ecef;stroke-width:0px;}</style></defs><circle class="cls-5" cx="473.31" cy="387.74" r="55.05"/><rect class="cls-5" x="355.33" y="187.65" width="295.86" height="103.2"/><rect class="cls-4" x="322.15" y="155.58" width="363.58" height="637.79"/><polyline class="cls-4" points="662.55 793.3 345.32 793.3 345.32 178.4 662.55 178.4"/><line class="cls-1" x1="662.55" y1="178.4" x2="662.55" y2="793.3"/><polyline class="cls-4" points="299.94 807.87 299.94 793.37 707.93 793.37 707.93 807.87 299.94 807.87"/><path class="cls-4" d="m307.3,807.94c7.45,0,2.31,21.95,14.13,21.95"/><path class="cls-4" d="m700.57,807.94c-7.45,0-2.31,21.95-14.13,21.95h-355.16"/><path class="cls-1" d="m335.2,844.42h336.11"/><line class="cls-4" x1="243.99" y1="433.7" x2="199.33" y2="433.7"/><path class="cls-4" d="m182.23,412.77c0-1.08.88-1.96,1.96-1.96h98.68c1.08,0,1.96.88,1.96,1.96v18.98c0,1.08-.88,1.96-1.96,1.96h-11.12"/><path class="cls-4" d="m882.04,624.72v13.57c0,1.08-.88,1.96-1.96,1.96h-83.54"/><line class="cls-4" x1="784.65" y1="617.36" x2="829.27" y2="617.36"/><path class="cls-4" d="m852.53,300.35v18.98c0,1.08-.88,1.96-1.96,1.96h-70.88"/><path class="cls-4" d="m749.94,308.92v-8.57c0-1.08.88-1.96,1.96-1.96h35.21"/><path class="cls-4" d="m148.26,451.98v-16.33c0-1.08.88-1.96,1.96-1.96h19.04"/><path class="cls-4" d="m250.86,439.88v14.76c0,1.08-.88,1.96-1.96,1.96h-55.2"/><path class="cls-4" d="m117.96,728.76v-5.35c0-1.39,1.13-2.52,2.52-2.52h63.26c1.04,0,1.89-.84,1.89-1.89v-8.21"/><path class="cls-4" d="m220.55,735.72v6.3c0,1.39-1.13,2.52-2.52,2.52h-58.59"/><polyline class="cls-4" points="355.37 309.84 402.13 367.24 402.13 783.2"/><polyline class="cls-4" points="345.32 315.81 388.86 367.01 388.86 516.33"/><line class="cls-4" x1="388.86" y1="524.9" x2="388.86" y2="793.37"/><line class="cls-4" x1="345.32" y1="300.12" x2="662.55" y2="300.12"/><polyline class="cls-4" points="355.33 187.65 651.71 187.65 651.71 200.66"/><polyline class="cls-4" points="651.71 290.84 355.33 290.84 355.33 255.87"/><path class="cls-4" d="m554.96,192.87v93.61"/><path class="cls-4" d="m554.96,309.39v41.54"/><path class="cls-4" d="m592.74,395.3c-12.59-14.52-25.18-29.01-37.77-43.53-12.59,14.5-25.2,29.01-37.79,43.53"/><ellipse class="cls-4" cx="554.99" cy="399.89" rx="38.82" ry="2.67"/><path class="cls-1" d="m487.53,191.66v95.11"/><path class="cls-1" d="m487.53,304.43v28.39"/><path class="cls-4" d="m465.38,457.94c-23.13-8.9-39.55-31.34-39.55-57.61,0-34.08,27.63-61.7,61.7-61.7,20.66,0,38.95,10.16,50.15,25.75"/><path class="cls-4" d="m548.17,411.76c-1.99,10.62-6.7,20.29-13.39,28.24"/><path class="cls-4" d="m537.68,364.38c.91,1.27,1.77,2.57,2.58,3.9"/><path class="cls-4" d="m522.01,453.97h0c.34,1.72.35,3.55-.35,5.15s-2.21,2.92-3.95,3.05c-5.28.39-8.31-7.33-8.55-11.55-.27-4.76,3.37-8.06,7.8-4.9,2.64,1.88,4.42,5.1,5.05,8.24Z"/><line class="cls-4" x1="510.2" y1="455.87" x2="489.72" y2="466"/><path class="cls-4" d="m523.5,448.82c-.58-1.44-1.17-2.93-1.17-4.44s.75-3.08,2.17-3.57c1.35-.47,2.97.18,4.04,1.24s1.69,2.47,2.22,3.85c.61,1.61,1.71,3.98,1.8,5.67s-.41,3.54-1.88,3.97"/><path class="cls-4" d="m510.13,425.13c.8,4.42-1.47,8.91-4.6,12.14-3.13,3.23-7.08,5.52-10.68,8.21-3.6,2.69-7.02,6.02-8.34,10.31-1.03,3.36-.68,6.97-.14,10.44.54,3.47,1.25,6.97.92,10.46s-1.91,7.08-4.94,8.86"/><path class="cls-4" d="m480.13,436.16c-2.96,3.3-6.89,5.63-9.79,8.98-3.56,4.11-5.37,9.68-4.9,15.09.13,1.46.41,2.92.18,4.37-.26,1.64-1.27,3.06-1.84,4.62-4.54,12.27,6.39,21.74,15.23,35.01"/><path class="cls-4" d="m531.61,477.04c-3.79,2.08-8.63,2.11-12.45.08"/><path class="cls-4" d="m497.8,422.43c2.22.15,3.79,2.53,3.74,4.76s-1.31,4.25-2.73,5.97c-3.13,3.79-7.19,6.67-10.92,9.87s-7.27,6.92-8.81,11.58"/><path class="cls-4" d="m477.62,478.62c2.64,7.13,5.62,19.8,1.56,25.67"/><path class="cls-4" d="m516.83,519.81c4.43,7.29,7.16,12.8,10.62,20.6-4.5-4.6-10.85-10.84-15.34-15.44,0-10.84,1.18-15.38,4.06-19.23,4.2-5.59,7.22-5.64,12.04-7.37,2.15-.77,4.37-1.39,6.42-2.39s3.97-2.66,4.5-4.88c.48-2.04-.26-4.14-1-6.1l-5.5-14.68c-.42-1.12-.06-2.38.9-3.11l3.04-2.31c1.58-1.2,1.59-3.57.02-4.79l-11.64-8.97"/><path class="cls-4" d="m477.62,510.89c8.44,8.22,19.92,17.19,31.8,19.34-5.78,4.76-17.8,11.75-17.8,11.75-2.54-6.89-13.95-18.93-16.49-25.83-12.55,8.55-29.84,14.74-42.38,23.29-3.58,2.44-7.22,4.94-9.88,8.36-6.71,8.64-5.64,20.79-4.24,31.65"/><path class="cls-4" d="m528.55,613.81c-5.41-7.7-7.72-17.53-6.29-26.84"/><path class="cls-1" d="m513.93,590.68c-1.6,10.53,1.94,22.28,9.17,30.09-17,18.76-39.6,32.37-64.13,38.62-4.8,1.22-9.75,2.17-14.69,1.75-4.94-.43-9.9-2.38-13.12-6.15-3.82-4.47-4.65-10.7-5.3-16.54-1.96-17.38-3.84-34.76-5.65-52.15"/><path class="cls-4" d="m508.9,593.14c-34.52,19.14-43.78,20.62-61.47,26.91"/><path class="cls-4" d="m461.79,576.31c1.63,9,3.26,17.99,4.89,26.99"/><path class="cls-4" d="m521.94,583.31c6.89-6.97,7.79-18.82,15.84-24.42,1.91-1.33,4.1-2.19,6.27-3.05,5.55-2.18,11.1-4.37,16.65-6.55"/><path class="cls-4" d="m554.79,557.91c-4.47,2.83-9.35,5.03-14.44,6.5"/><path class="cls-4" d="m552.54,566.14c-4.06,2.89-8.56,5.16-13.29,6.72"/><path class="cls-4" d="m551,575.1c-4.63,2.6-9.06,5.52-13.27,8.75"/><path class="cls-4" d="m613.24,537.93l3.6-.1c1.79-.04,3,1.84,2.22,3.44l-19.88,45.7"/><path class="cls-4" d="m529.42,614.51c7.41-5.34,12.2-14.07,12.74-23.17,6.5-5.04,10.13-8.27,12.68-11.9.61-.89.99-1.96,1.03-3.04.04-1.1-.44-2.26-1.41-2.72l12.55-28.51c1.62-3.71,5.25-6.14,9.31-6.25l8.52-.23"/><path class="cls-4" d="m607.4,542.85l-26.67.76c2.22-4.43,6.9-7.51,11.86-7.81,1.2-.08,2.47,0,3.57-.51,1.06-.53,1.86-1.86,1.33-2.89-1.33-.57-2.06-1.85-1.94-3.35.19-2.36,2.28-3.71,4.54-3.69,2.24,0,3.84,1.67,3.59,3.71-.21,1.65-1.12,2.88-2.79,3.34-.38,2.93,1.71,3.05,2.53,3.07,3.23.11,4.77.82,5.11,2.66.21,1.24-1.12,4.71-1.12,4.71Z"/><path class="cls-2" d="m556.38,550.99l-23.43-22.85,1.25-1.44-1.4-1.36c-.66-.64-.65-1.7.02-2.33h0c.65-.61,1.66-.58,2.28.06s1.23,1.27,1.23,1.16l1.1-1.13,25.22,25.34-6.26,2.55Z"/><path class="cls-4" d="m596.49,580.03c2.23,5.97,4.14,12.05,5.73,18.22.57,2.21,1.1,4.51.68,6.75-.23,1.25-.83,2.47-1.71,3.38-1.12,1.16-1.99,2.6-1.97,4.22.02,1.86-.64,3.73-1.9,5.1-.77.84-1.74,1.5-2.33,2.48-.7,1.16-.75,2.58-1.13,3.88-1.21,4.13-6.27,6.66-10.3,5.13"/><line class="cls-4" x1="588.97" y1="578.99" x2="596.51" y2="604.09"/><path class="cls-4" d="m584.16,586.95c3.36,8.35,6.1,16.94,8.2,25.69"/><path class="cls-4" d="m578.59,594.5c2.79,8.52,5.59,17.04,8.38,25.55"/><path class="cls-4" d="m575.66,606.76c2.28,7.64,4.94,14.47,7.22,22.11l-3.23,7.03c-.6,1.3-1.86,2.16-3.29,2.22-7.75.37-32.69,1.17-43.06,1.5-2.16.07-3.67-2.11-2.86-4.12l18.52-45.7"/><path class="cls-4" d="m509.42,530.23c1.92,8.58,3.84,17.17,5.76,25.75"/><path class="cls-4" d="m440.49,663.48c.88,3.49.26,7.16.3,10.76s.96,7.57,3.93,9.61c2.79,1.91,6.49,1.55,9.84,1.12"/><path class="cls-4" d="m562.1,643.97c-1.93,5.26-.68,11.07-.2,16.66.48,5.59-.25,12.02-4.75,15.37-3.14,2.34-7.36,2.55-11.26,2.23"/><path class="cls-4" d="m459.73,683.62c14.98-4.79,55.43-7.04,70.18-6.6"/><path class="cls-2" d="m560.67,793.33c1.28-33.91-.38-71.8-3.63-105.58-34.23-1.48-69.08-1.51-102.04,7.1l-5.3,1.4-1,3.94c-6.29,29.98-8.89,62.53-7.6,93.13h119.57Z"/><path class="cls-3" d="m508.26,786.36c-.24-11.18.34-26.21.61-33.9.1-2.91,1.69-5.37,3.88-6.03l3.22-.96"/><path class="cls-4" d="m598.09,622.16c1.09,30.92-6.88,40.34-13.44,45.14-6.55,4.8-16.35,5.56-22.64.42"/></svg>