<?xml version="1.0" encoding="utf-8"?>
<!-- Generator: Adobe Illustrator 16.0.0, SVG Export Plug-In . SVG Version: 6.00 Build 0)  -->
<!DOCTYPE svg PUBLIC "-//W3C//DTD SVG 1.1//EN" "http://www.w3.org/Graphics/SVG/1.1/DTD/svg11.dtd">
<svg version="1.1" id="Layer_3" xmlns="http://www.w3.org/2000/svg" xmlns:xlink="http://www.w3.org/1999/xlink" x="0px" y="0px"
	 width="250px" height="250px" viewBox="0 0 250 250" enable-background="new 0 0 250 250" xml:space="preserve">
<g>
	<g>
		<path d="M67.807,234.354c0-47.827,0-95.655,0-143.483c0-26.177,0-52.355,0-78.532c0-2.58-4-2.58-4,0c0,47.828,0,95.655,0,143.483
			c0,26.178,0,52.354,0,78.532C63.807,236.934,67.807,236.934,67.807,234.354L67.807,234.354z"/>
	</g>
</g>
<g>
	<g>
		<path d="M65.807,14.339c39.129,0,78.258,0,117.387,0c2.579,0,2.579-4,0-4c-39.129,0-78.258,0-117.387,0
			C63.227,10.339,63.227,14.339,65.807,14.339L65.807,14.339z"/>
	</g>
</g>
<g>
	<g>
		<path d="M181.193,12.339c0,47.828,0,95.655,0,143.483c0,26.178,0,52.354,0,78.532c0,2.579,4,2.579,4,0
			c0-47.827,0-95.655,0-143.483c0-26.177,0-52.355,0-78.532C185.193,9.76,181.193,9.76,181.193,12.339L181.193,12.339z"/>
	</g>
</g>
<g>
	<g>
		<path d="M118.121,39.41c-14.886,0-29.772,0-44.658,0c0.667,0.667,1.333,1.333,2,2c0-7.23,0-14.46,0-21.691
			c-0.667,0.667-1.333,1.333-2,2c14.886,0,29.772,0,44.658,0c-0.667-0.667-1.333-1.333-2-2c0,7.23,0,14.46,0,21.691
			c0,2.58,4,2.58,4,0c0-7.23,0-14.46,0-21.691c0-1.09-0.91-2-2-2c-14.886,0-29.772,0-44.658,0c-1.09,0-2,0.91-2,2
			c0,7.23,0,14.46,0,21.691c0,1.09,0.91,2,2,2c14.886,0,29.772,0,44.658,0C120.7,43.41,120.7,39.41,118.121,39.41z"/>
	</g>
</g>
<g>
	<g>
		<path d="M175.538,39.41c-14.887,0-29.772,0-44.659,0c0.667,0.667,1.333,1.333,2,2c0-7.23,0-14.46,0-21.691
			c-0.667,0.667-1.333,1.333-2,2c14.887,0,29.772,0,44.659,0c-0.667-0.667-1.333-1.333-2-2c0,7.23,0,14.46,0,21.691
			c0,2.58,4,2.58,4,0c0-7.23,0-14.46,0-21.691c0-1.09-0.91-2-2-2c-14.887,0-29.772,0-44.659,0c-1.09,0-2,0.91-2,2
			c0,7.23,0,14.46,0,21.691c0,1.09,0.91,2,2,2c14.887,0,29.772,0,44.659,0C178.117,43.41,178.117,39.41,175.538,39.41z"/>
	</g>
</g>
<g>
	<g>
		<path d="M118.121,77.688c-14.886,0-29.772,0-44.658,0c0.667,0.667,1.333,1.333,2,2c0-7.23,0-14.461,0-21.691
			c-0.667,0.667-1.333,1.333-2,2c14.886,0,29.772,0,44.658,0c-0.667-0.667-1.333-1.333-2-2c0,7.23,0,14.461,0,21.691
			c0,2.58,4,2.58,4,0c0-7.23,0-14.461,0-21.691c0-1.09-0.91-2-2-2c-14.886,0-29.772,0-44.658,0c-1.09,0-2,0.91-2,2
			c0,7.23,0,14.461,0,21.691c0,1.09,0.91,2,2,2c14.886,0,29.772,0,44.658,0C120.7,81.688,120.7,77.688,118.121,77.688z"/>
	</g>
</g>
<g>
	<g>
		<path d="M175.538,77.688c-14.887,0-29.772,0-44.659,0c0.667,0.667,1.333,1.333,2,2c0-7.23,0-14.461,0-21.691
			c-0.667,0.667-1.333,1.333-2,2c14.887,0,29.772,0,44.659,0c-0.667-0.667-1.333-1.333-2-2c0,7.23,0,14.461,0,21.691
			c0,2.58,4,2.58,4,0c0-7.23,0-14.461,0-21.691c0-1.09-0.91-2-2-2c-14.887,0-29.772,0-44.659,0c-1.09,0-2,0.91-2,2
			c0,7.23,0,14.461,0,21.691c0,1.09,0.91,2,2,2c14.887,0,29.772,0,44.659,0C178.117,81.688,178.117,77.688,175.538,77.688z"/>
	</g>
</g>
<g>
	<g>
		<path d="M118.121,115.966c-14.886,0-29.772,0-44.658,0c0.667,0.667,1.333,1.333,2,2c0-7.23,0-14.46,0-21.69
			c-0.667,0.667-1.333,1.333-2,2c14.886,0,29.772,0,44.658,0c-0.667-0.667-1.333-1.333-2-2c0,7.23,0,14.46,0,21.69
			c0,2.58,4,2.58,4,0c0-7.23,0-14.46,0-21.69c0-1.09-0.91-2-2-2c-14.886,0-29.772,0-44.658,0c-1.09,0-2,0.91-2,2
			c0,7.23,0,14.46,0,21.69c0,1.09,0.91,2,2,2c14.886,0,29.772,0,44.658,0C120.7,119.966,120.7,115.966,118.121,115.966z"/>
	</g>
</g>
<g>
	<g>
		<path d="M175.538,115.966c-14.887,0-29.772,0-44.659,0c0.667,0.667,1.333,1.333,2,2c0-7.23,0-14.46,0-21.69
			c-0.667,0.667-1.333,1.333-2,2c14.887,0,29.772,0,44.659,0c-0.667-0.667-1.333-1.333-2-2c0,7.23,0,14.46,0,21.69
			c0,2.58,4,2.58,4,0c0-7.23,0-14.46,0-21.69c0-1.09-0.91-2-2-2c-14.887,0-29.772,0-44.659,0c-1.09,0-2,0.91-2,2
			c0,7.23,0,14.46,0,21.69c0,1.09,0.91,2,2,2c14.887,0,29.772,0,44.659,0C178.117,119.966,178.117,115.966,175.538,115.966z"/>
	</g>
</g>
<g>
	<g>
		<path d="M118.121,154.245c-14.886,0-29.772,0-44.658,0c0.667,0.667,1.333,1.333,2,2c0-7.23,0-14.46,0-21.69
			c-0.667,0.667-1.333,1.333-2,2c14.886,0,29.772,0,44.658,0c-0.667-0.667-1.333-1.333-2-2c0,7.23,0,14.46,0,21.69
			c0,2.579,4,2.579,4,0c0-7.23,0-14.46,0-21.69c0-1.09-0.91-2-2-2c-14.886,0-29.772,0-44.658,0c-1.09,0-2,0.91-2,2
			c0,7.23,0,14.46,0,21.69c0,1.09,0.91,2,2,2c14.886,0,29.772,0,44.658,0C120.7,158.245,120.7,154.245,118.121,154.245z"/>
	</g>
</g>
<g>
	<g>
		<path d="M175.538,154.245c-14.887,0-29.772,0-44.659,0c0.667,0.667,1.333,1.333,2,2c0-7.23,0-14.46,0-21.69
			c-0.667,0.667-1.333,1.333-2,2c14.887,0,29.772,0,44.659,0c-0.667-0.667-1.333-1.333-2-2c0,7.23,0,14.46,0,21.69
			c0,2.579,4,2.579,4,0c0-7.23,0-14.46,0-21.69c0-1.09-0.91-2-2-2c-14.887,0-29.772,0-44.659,0c-1.09,0-2,0.91-2,2
			c0,7.23,0,14.46,0,21.69c0,1.09,0.91,2,2,2c14.887,0,29.772,0,44.659,0C178.117,158.245,178.117,154.245,175.538,154.245z"/>
	</g>
</g>
<g>
	<g>
		<path d="M118.121,192.523c-14.886,0-29.772,0-44.658,0c0.667,0.667,1.333,1.333,2,2c0-7.23,0-14.461,0-21.691
			c-0.667,0.667-1.333,1.333-2,2c14.886,0,29.772,0,44.658,0c-0.667-0.667-1.333-1.333-2-2c0,7.23,0,14.461,0,21.691
			c0,2.579,4,2.579,4,0c0-7.23,0-14.461,0-21.691c0-1.09-0.91-2-2-2c-14.886,0-29.772,0-44.658,0c-1.09,0-2,0.91-2,2
			c0,7.23,0,14.461,0,21.691c0,1.09,0.91,2,2,2c14.886,0,29.772,0,44.658,0C120.7,196.523,120.7,192.523,118.121,192.523z"/>
	</g>
</g>
<g>
	<g>
		<path d="M175.538,192.523c-14.887,0-29.772,0-44.659,0c0.667,0.667,1.333,1.333,2,2c0-7.23,0-14.461,0-21.691
			c-0.667,0.667-1.333,1.333-2,2c14.887,0,29.772,0,44.659,0c-0.667-0.667-1.333-1.333-2-2c0,7.23,0,14.461,0,21.691
			c0,2.579,4,2.579,4,0c0-7.23,0-14.461,0-21.691c0-1.09-0.91-2-2-2c-14.887,0-29.772,0-44.659,0c-1.09,0-2,0.91-2,2
			c0,7.23,0,14.461,0,21.691c0,1.09,0.91,2,2,2c14.887,0,29.772,0,44.659,0C178.117,196.523,178.117,192.523,175.538,192.523z"/>
	</g>
</g>
<g>
	<g>
		<path d="M184.469,46.238c17.438,0,34.876,0,52.314,0c2.579,0,2.579-4,0-4c-17.438,0-34.876,0-52.314,0
			C181.89,42.238,181.89,46.238,184.469,46.238L184.469,46.238z"/>
	</g>
</g>
<g>
	<g>
		<path d="M234.783,44.238c0,49.628,0,99.256,0,148.884c0,13.744,0,27.488,0,41.232c0,2.579,4,2.579,4,0
			c0-49.628,0-99.256,0-148.883c0-13.745,0-27.489,0-41.233C238.783,41.659,234.783,41.659,234.783,44.238L234.783,44.238z"/>
	</g>
</g>
<g>
	<g>
		<path d="M229.127,67.757c-12.759,0-25.519,0-38.277,0c0.667,0.667,1.333,1.333,2,2c0-5.954,0-11.909,0-17.863
			c-0.667,0.667-1.333,1.333-2,2c12.759,0,25.519,0,38.277,0c-0.667-0.667-1.333-1.333-2-2c0,5.954,0,11.909,0,17.863
			c0,2.58,4,2.58,4,0c0-5.954,0-11.909,0-17.863c0-1.09-0.91-2-2-2c-12.759,0-25.519,0-38.277,0c-1.09,0-2,0.91-2,2
			c0,5.954,0,11.909,0,17.863c0,1.09,0.91,2,2,2c12.759,0,25.519,0,38.277,0C231.706,71.757,231.706,67.757,229.127,67.757z"/>
	</g>
</g>
<g>
	<g>
		<path d="M229.127,100.932c-12.759,0-25.519,0-38.277,0c0.667,0.667,1.333,1.333,2,2c0-5.955,0-11.909,0-17.864
			c-0.667,0.667-1.333,1.333-2,2c12.759,0,25.519,0,38.277,0c-0.667-0.667-1.333-1.333-2-2c0,5.955,0,11.909,0,17.864
			c0,2.58,4,2.58,4,0c0-5.955,0-11.909,0-17.864c0-1.09-0.91-2-2-2c-12.759,0-25.519,0-38.277,0c-1.09,0-2,0.91-2,2
			c0,5.955,0,11.909,0,17.864c0,1.09,0.91,2,2,2c12.759,0,25.519,0,38.277,0C231.706,104.932,231.706,100.932,229.127,100.932z"/>
	</g>
</g>
<g>
	<g>
		<path d="M229.127,134.106c-12.759,0-25.519,0-38.277,0c0.667,0.667,1.333,1.333,2,2c0-6.38,0-12.76,0-19.14
			c-0.667,0.667-1.333,1.333-2,2c12.759,0,25.519,0,38.277,0c-0.667-0.667-1.333-1.333-2-2c0,6.38,0,12.76,0,19.14
			c0,2.579,4,2.579,4,0c0-6.38,0-12.76,0-19.14c0-1.09-0.91-2-2-2c-12.759,0-25.519,0-38.277,0c-1.09,0-2,0.91-2,2
			c0,6.38,0,12.76,0,19.14c0,1.09,0.91,2,2,2c12.759,0,25.519,0,38.277,0C231.706,138.106,231.706,134.106,229.127,134.106z"/>
	</g>
</g>
<g>
	<g>
		<path d="M229.127,167.28c-12.759,0-25.519,0-38.277,0c0.667,0.667,1.333,1.333,2,2c0-6.38,0-12.759,0-19.139
			c-0.667,0.667-1.333,1.333-2,2c12.759,0,25.519,0,38.277,0c-0.667-0.667-1.333-1.333-2-2c0,6.38,0,12.759,0,19.139
			c0,2.579,4,2.579,4,0c0-6.38,0-12.759,0-19.139c0-1.09-0.91-2-2-2c-12.759,0-25.519,0-38.277,0c-1.09,0-2,0.91-2,2
			c0,6.38,0,12.759,0,19.139c0,1.09,0.91,2,2,2c12.759,0,25.519,0,38.277,0C231.706,171.28,231.706,167.28,229.127,167.28z"/>
	</g>
</g>
<g>
	<g>
		<path d="M229.127,200.456c-12.759,0-25.519,0-38.277,0c0.667,0.667,1.333,1.333,2,2c0-6.38,0-12.761,0-19.141
			c-0.667,0.667-1.333,1.333-2,2c12.759,0,25.519,0,38.277,0c-0.667-0.667-1.333-1.333-2-2c0,6.38,0,12.761,0,19.141
			c0,2.579,4,2.579,4,0c0-6.38,0-12.761,0-19.141c0-1.09-0.91-2-2-2c-12.759,0-25.519,0-38.277,0c-1.09,0-2,0.91-2,2
			c0,6.38,0,12.761,0,19.141c0,1.09,0.91,2,2,2c12.759,0,25.519,0,38.277,0C231.706,204.456,231.706,200.456,229.127,200.456z"/>
	</g>
</g>
<g>
	<g>
		<path d="M64.53,42.238c-17.438,0-34.875,0-52.313,0c-2.58,0-2.58,4,0,4c17.438,0,34.875,0,52.313,0
			C67.11,46.238,67.11,42.238,64.53,42.238L64.53,42.238z"/>
	</g>
</g>
<g>
	<g>
		<path d="M10.217,44.238c0,49.628,0,99.256,0,148.884c0,13.744,0,27.488,0,41.232c0,2.579,4,2.579,4,0c0-49.628,0-99.256,0-148.883
			c0-13.745,0-27.489,0-41.233C14.217,41.659,10.217,41.659,10.217,44.238L10.217,44.238z"/>
	</g>
</g>
<g>
	<g>
		<path d="M19.873,71.757c12.759,0,25.519,0,38.278,0c1.09,0,2-0.91,2-2c0-5.954,0-11.909,0-17.863c0-1.09-0.91-2-2-2
			c-12.759,0-25.519,0-38.278,0c-1.09,0-2,0.91-2,2c0,5.954,0,11.909,0,17.863c0,2.58,4,2.58,4,0c0-5.954,0-11.909,0-17.863
			c-0.667,0.667-1.333,1.333-2,2c12.759,0,25.519,0,38.278,0c-0.667-0.667-1.333-1.333-2-2c0,5.954,0,11.909,0,17.863
			c0.667-0.667,1.333-1.333,2-2c-12.759,0-25.519,0-38.278,0C17.293,67.757,17.293,71.757,19.873,71.757z"/>
	</g>
</g>
<g>
	<g>
		<path d="M19.873,104.932c12.759,0,25.519,0,38.278,0c1.09,0,2-0.91,2-2c0-5.955,0-11.909,0-17.864c0-1.09-0.91-2-2-2
			c-12.759,0-25.519,0-38.278,0c-1.09,0-2,0.91-2,2c0,5.955,0,11.909,0,17.864c0,2.58,4,2.58,4,0c0-5.955,0-11.909,0-17.864
			c-0.667,0.667-1.333,1.333-2,2c12.759,0,25.519,0,38.278,0c-0.667-0.667-1.333-1.333-2-2c0,5.955,0,11.909,0,17.864
			c0.667-0.667,1.333-1.333,2-2c-12.759,0-25.519,0-38.278,0C17.293,100.932,17.293,104.932,19.873,104.932z"/>
	</g>
</g>
<g>
	<g>
		<path d="M19.873,138.106c12.759,0,25.519,0,38.278,0c1.09,0,2-0.91,2-2c0-6.38,0-12.76,0-19.14c0-1.09-0.91-2-2-2
			c-12.759,0-25.519,0-38.278,0c-1.09,0-2,0.91-2,2c0,6.38,0,12.76,0,19.14c0,2.579,4,2.579,4,0c0-6.38,0-12.76,0-19.14
			c-0.667,0.667-1.333,1.333-2,2c12.759,0,25.519,0,38.278,0c-0.667-0.667-1.333-1.333-2-2c0,6.38,0,12.76,0,19.14
			c0.667-0.667,1.333-1.333,2-2c-12.759,0-25.519,0-38.278,0C17.293,134.106,17.293,138.106,19.873,138.106z"/>
	</g>
</g>
<g>
	<g>
		<path d="M19.873,171.28c12.759,0,25.519,0,38.278,0c1.09,0,2-0.91,2-2c0-6.38,0-12.759,0-19.139c0-1.09-0.91-2-2-2
			c-12.759,0-25.519,0-38.278,0c-1.09,0-2,0.91-2,2c0,6.38,0,12.759,0,19.139c0,2.579,4,2.579,4,0c0-6.38,0-12.759,0-19.139
			c-0.667,0.667-1.333,1.333-2,2c12.759,0,25.519,0,38.278,0c-0.667-0.667-1.333-1.333-2-2c0,6.38,0,12.759,0,19.139
			c0.667-0.667,1.333-1.333,2-2c-12.759,0-25.519,0-38.278,0C17.293,167.28,17.293,171.28,19.873,171.28z"/>
	</g>
</g>
<g>
	<g>
		<path d="M19.873,204.456c12.759,0,25.519,0,38.278,0c1.09,0,2-0.91,2-2c0-6.38,0-12.761,0-19.141c0-1.09-0.91-2-2-2
			c-12.759,0-25.519,0-38.278,0c-1.09,0-2,0.91-2,2c0,6.38,0,12.761,0,19.141c0,2.579,4,2.579,4,0c0-6.38,0-12.761,0-19.141
			c-0.667,0.667-1.333,1.333-2,2c12.759,0,25.519,0,38.278,0c-0.667-0.667-1.333-1.333-2-2c0,6.38,0,12.761,0,19.141
			c0.667-0.667,1.333-1.333,2-2c-12.759,0-25.519,0-38.278,0C17.293,200.456,17.293,204.456,19.873,204.456z"/>
	</g>
</g>
<g>
	<g>
		<path d="M103.533,234.354c0-7.23,0-14.462,0-21.692c-0.667,0.667-1.333,1.333-2,2c14.886,0,29.772,0,44.658,0
			c-0.667-0.667-1.333-1.333-2-2c0,7.23,0,14.462,0,21.692c0,2.579,4,2.579,4,0c0-7.23,0-14.462,0-21.692c0-1.09-0.91-2-2-2
			c-14.886,0-29.772,0-44.658,0c-1.09,0-2,0.91-2,2c0,7.23,0,14.462,0,21.692C99.533,236.934,103.533,236.934,103.533,234.354
			L103.533,234.354z"/>
	</g>
</g>
</svg>
