<?xml version="1.0" encoding="utf-8"?>
<!-- Generator: Adobe Illustrator 16.0.0, SVG Export Plug-In . SVG Version: 6.00 Build 0)  -->
<!DOCTYPE svg PUBLIC "-//W3C//DTD SVG 1.1//EN" "http://www.w3.org/Graphics/SVG/1.1/DTD/svg11.dtd">
<svg version="1.1" xmlns="http://www.w3.org/2000/svg" xmlns:xlink="http://www.w3.org/1999/xlink" x="0px" y="0px" width="250px"
	 height="250px" viewBox="0 0 250 250" enable-background="new 0 0 250 250" xml:space="preserve">
<g id="Layer_3">
	<g>
		<g>
			<path d="M79.208,119.043c25.331,17.772,50.663,35.545,75.994,53.316c0.337-1.242,0.673-2.484,1.01-3.727c-0.014,0-0.026,0-0.04,0
				c0.667,0.667,1.333,1.333,2,2c0-5.474,0-10.946,0-16.42c-0.667,0.667-1.333,1.333-2,2c0.018,0,0.036,0,0.054,0
				c2.11,0,2.568-2.627,1.01-3.727c-19.549-13.798-39.099-27.592-58.648-41.388c-2.93-2.068-5.879-4.081-8.933-5.968
				c-2.629-1.625-5.878-3.909-9.052-4.226c-3.215-0.321-6.764,2.356-9.328,3.94c-8.024,4.958-15.6,10.797-23.3,16.225
				c-14.873,10.484-29.746,20.969-44.619,31.454c-1.56,1.1-1.101,3.727,1.009,3.727c0.034,0,0.068,0,0.102,0
				c-0.667-0.667-1.333-1.333-2-2c0,5.461,0,10.921,0,16.382c0.667-0.667,1.333-1.333,2-2c-0.034,0-0.068,0-0.102,0
				c0.336,1.242,0.673,2.484,1.009,3.727c25.332-17.771,50.663-35.544,75.995-53.316c2.094-1.469,0.099-4.939-2.019-3.454
				c-25.332,17.772-50.663,35.545-75.995,53.317c-1.564,1.098-1.097,3.727,1.009,3.727c0.034,0,0.068,0,0.102,0c1.09,0,2-0.91,2-2
				c0-5.461,0-10.921,0-16.382c0-1.09-0.91-2-2-2c-0.034,0-0.068,0-0.102,0c0.336,1.242,0.673,2.484,1.009,3.727
				c19.766-13.934,39.532-27.867,59.298-41.801c3.138-2.212,6.269-4.424,9.537-6.443c3.901-2.41,5.684-3.4,9.819-1.235
				c3.292,1.723,6.418,3.806,9.483,5.901c8.479,5.795,16.793,11.846,25.184,17.768c12.173,8.591,24.347,17.181,36.52,25.772
				c0.337-1.242,0.673-2.484,1.01-3.727c-0.018,0-0.036,0-0.054,0c-1.09,0-2,0.91-2,2c0,5.474,0,10.946,0,16.42c0,1.09,0.91,2,2,2
				c0.014,0,0.026,0,0.04,0c2.106,0,2.574-2.629,1.01-3.727c-25.332-17.772-50.663-35.545-75.995-53.317
				C79.11,114.104,77.114,117.574,79.208,119.043L79.208,119.043z"/>
		</g>
	</g>
	<g>
		<g>
			<path d="M186.002,89.033c20.151,14.138,40.303,28.275,60.453,42.413c0.337-1.242,0.673-2.484,1.01-3.727
				c-0.011,0-0.021,0-0.032,0c0.667,0.667,1.333,1.333,2,2c0-4.354,0-8.708,0-13.062c-0.667,0.667-1.333,1.333-2,2
				c0.015,0,0.028,0,0.043,0c2.11,0,2.568-2.626,1.01-3.727c-17.957-12.675-35.469-26.484-54.223-37.951
				c-2.143-1.31-5.643-3.834-8.367-3.041c-3.646,1.062-6.916,3.482-10.006,5.613c-2.316,1.597-4.613,3.225-6.923,4.832
				c-12.271,8.542-24.541,17.084-36.812,25.625c-5.952,4.144-11.905,8.287-17.857,12.431c-0.946,0.659-1.494,2.285-0.405,3.141
				c3.172,2.494,6.345,4.987,9.518,7.48c0.667,0.524,1.638,0.872,2.423,0.313c20.767-14.78,41.534-29.56,62.3-44.34
				c2.082-1.482,0.087-4.953-2.02-3.454c-20.767,14.78-41.533,29.561-62.299,44.341c0.808,0.104,1.616,0.208,2.423,0.313
				c-3.172-2.493-6.345-4.987-9.518-7.48c-0.135,1.047-0.27,2.094-0.405,3.141c19.557-13.614,39.114-27.228,58.67-40.842
				c3.629-2.526,7.225-5.444,11.354-7.076c2.447-0.967,7.943,3.706,9.94,5.029c0.94,0.623,1.858,1.276,2.779,1.926
				c11.421,8.059,22.841,16.118,34.261,24.176c4.382,3.092,8.764,6.184,13.145,9.277c0.337-1.242,0.673-2.485,1.01-3.727
				c-0.015,0-0.028,0-0.043,0c-1.09,0-2,0.91-2,2c0,4.354,0,8.708,0,13.062c0,1.09,0.91,2,2,2c0.011,0,0.021,0,0.032,0
				c2.106,0,2.574-2.629,1.01-3.727c-20.151-14.138-40.303-28.276-60.453-42.414C185.904,84.093,183.908,87.563,186.002,89.033
				L186.002,89.033z"/>
		</g>
	</g>
	<g>
		<g>
			<path d="M38.208,181.626c0,17.833,0,35.666,0,53.499c0,2.579,4,2.579,4,0c0-17.833,0-35.666,0-53.499
				C42.208,179.047,38.208,179.047,38.208,181.626L38.208,181.626z"/>
		</g>
	</g>
	<g>
		<g>
			<path d="M144.002,233.308c-16.281,0-32.562,0-48.843,0c-2.58,0-2.58,4,0,4c0.203,0,0.406,0,0.609,0c2.58,0,2.58-4,0-4
				c-26.464,0-52.928,0-79.392,0c-2.58,0-2.58,4,0,4c26.464,0,52.928,0,79.392,0c2.58,0,2.58-4,0-4c-0.203,0-0.406,0-0.609,0
				c-2.58,0-2.58,4,0,4c16.281,0,32.562,0,48.843,0C146.581,237.308,146.581,233.308,144.002,233.308L144.002,233.308z"/>
		</g>
	</g>
	<g>
		<g>
			<path d="M68.194,181.626c0,17.833,0,35.666,0,53.499c0,2.579,4,2.579,4,0c0-17.833,0-35.666,0-53.499
				C72.194,179.047,68.194,179.047,68.194,181.626L68.194,181.626z"/>
		</g>
	</g>
	<g>
		<g>
			<path d="M46.537,208.449c0.059-0.303,0.061-0.348,0.007-0.134c0.039-0.172,0.124-0.317,0.254-0.437
				c-0.154,0.147-0.119,0.125,0.105-0.069c0.08-0.031,0.16-0.063,0.24-0.094c-0.214,0.055-0.17,0.052,0.133-0.007
				c0.303,0.059,0.347,0.062,0.133,0.007c0.172,0.039,0.317,0.124,0.436,0.254c-0.147-0.153-0.125-0.118,0.069,0.105
				c0.031,0.08,0.063,0.16,0.094,0.24c-0.054-0.214-0.051-0.169,0.007,0.134c-0.059,0.303-0.061,0.347-0.007,0.133
				c-0.039,0.172-0.124,0.317-0.253,0.436c0.154-0.147,0.119-0.125-0.105,0.069c-0.08,0.031-0.16,0.063-0.24,0.094
				c0.214-0.055,0.169-0.052-0.133,0.007c-0.303-0.059-0.347-0.062-0.133-0.007c-0.172-0.039-0.318-0.124-0.437-0.254
				c0.147,0.153,0.125,0.119-0.069-0.105c-0.031-0.079-0.063-0.159-0.094-0.239C46.598,208.796,46.596,208.752,46.537,208.449
				c0.059,1.088,0.866,2,2,2c1.046,0,2.059-0.91,2-2c-0.099-1.842-1.419-3.162-3.261-3.262c-1.838-0.099-3.17,1.568-3.261,3.262
				c-0.099,1.837,1.568,3.169,3.261,3.26c1.837,0.099,3.169-1.567,3.261-3.26c0.059-1.09-0.954-2-2-2
				C47.402,206.449,46.596,207.361,46.537,208.449z"/>
		</g>
	</g>
	<g>
		<g>
			<path d="M47.364,206.396c-0.029,0-0.058,0-0.087,0c-1.09,0-2,0.91-2,2s0.91,2,2,2c0.029,0,0.058,0,0.087,0c1.09,0,2-0.91,2-2
				S48.454,206.396,47.364,206.396L47.364,206.396z"/>
		</g>
	</g>
	<g>
		<g>
			<path d="M215.261,90.875c0-4.098,0-8.195,0-12.292c-0.667,0.667-1.333,1.333-2,2c5.13,0,10.261,0,15.391,0
				c-0.667-0.667-1.333-1.333-2-2c0,7.704,0,15.407,0,23.11c0,2.58,4,2.58,4,0c0-7.704,0-15.407,0-23.11c0-1.09-0.91-2-2-2
				c-5.13,0-10.261,0-15.391,0c-1.09,0-2,0.91-2,2c0,4.098,0,8.195,0,12.292C211.261,93.455,215.261,93.455,215.261,90.875
				L215.261,90.875z"/>
		</g>
	</g>
	<g>
		<g>
			<path d="M146.315,235.195c0-23.833,0-47.667,0-71.5c0-2.579-4-2.579-4,0c0,23.833,0,47.667,0,71.5
				C142.315,237.774,146.315,237.774,146.315,235.195L146.315,235.195z"/>
		</g>
	</g>
	<g>
		<g>
			<path d="M18.367,235.195c0-23.833,0-47.667,0-71.5c0-2.579-4-2.579-4,0c0,23.833,0,47.667,0,71.5
				C14.367,237.774,18.367,237.774,18.367,235.195L18.367,235.195z"/>
		</g>
	</g>
	<g>
		<g>
			<path d="M40.514,182.943c9.826,0,19.652,0,29.479,0c2.58,0,2.58-4,0-4c-9.826,0-19.652,0-29.479,0
				C37.934,178.943,37.934,182.943,40.514,182.943L40.514,182.943z"/>
		</g>
	</g>
	<g>
		<g>
			<path d="M124.5,209.5c-10,0-20,0-30,0c0.667,0.667,1.333,1.333,2,2c0-10.333,0-20.667,0-31c-0.667,0.667-1.333,1.333-2,2
				c10,0,20,0,30,0c-0.667-0.667-1.333-1.333-2-2c0,10.333,0,20.667,0,31c0,2.579,4,2.579,4,0c0-10.333,0-20.667,0-31
				c0-1.09-0.91-2-2-2c-10,0-20,0-30,0c-1.09,0-2,0.91-2,2c0,10.333,0,20.667,0,31c0,1.09,0.91,2,2,2c10,0,20,0,30,0
				C127.079,213.5,127.079,209.5,124.5,209.5z"/>
		</g>
	</g>
	<g>
		<g>
			<path d="M107.5,181c0,10,0,20,0,30c0,2.579,4,2.579,4,0c0-10,0-20,0-30C111.5,178.421,107.5,178.421,107.5,181L107.5,181z"/>
		</g>
	</g>
	<g>
		<g>
			<path d="M94,198.5c10,0,20,0,30,0c2.579,0,2.579-4,0-4c-10,0-20,0-30,0C91.42,194.5,91.42,198.5,94,198.5L94,198.5z"/>
		</g>
	</g>
	<g>
		<g>
			<path d="M222.092,210.5c-21.596,0-43.19,0-64.786,0c0.667,0.667,1.333,1.333,2,2c0-10.333,0-20.667,0-31
				c-0.667,0.667-1.333,1.333-2,2c21.596,0,43.19,0,64.786,0c-0.667-0.667-1.333-1.333-2-2c0,10.333,0,20.667,0,31
				c0,2.579,4,2.579,4,0c0-10.333,0-20.667,0-31c0-1.09-0.91-2-2-2c-21.596,0-43.19,0-64.786,0c-1.09,0-2,0.91-2,2
				c0,10.333,0,20.667,0,31c0,1.09,0.91,2,2,2c21.596,0,43.19,0,64.786,0C224.671,214.5,224.671,210.5,222.092,210.5z"/>
		</g>
	</g>
	<g>
		<g>
			<path d="M202.5,139.5c-10,0-20,0-30,0c0.667,0.667,1.333,1.333,2,2c0-10.333,0-20.667,0-31c-0.667,0.667-1.333,1.333-2,2
				c10,0,20,0,30,0c-0.667-0.667-1.333-1.333-2-2c0,10.333,0,20.667,0,31c0,2.579,4,2.579,4,0c0-10.333,0-20.667,0-31
				c0-1.09-0.91-2-2-2c-10,0-20,0-30,0c-1.09,0-2,0.91-2,2c0,10.333,0,20.667,0,31c0,1.09,0.91,2,2,2c10,0,20,0,30,0
				C205.079,143.5,205.079,139.5,202.5,139.5z"/>
		</g>
	</g>
	<g>
		<g>
			<path d="M185.5,111c0,10,0,20,0,30c0,2.579,4,2.579,4,0c0-10,0-20,0-30C189.5,108.42,185.5,108.42,185.5,111L185.5,111z"/>
		</g>
	</g>
	<g>
		<g>
			<path d="M172,128.5c10,0,20,0,30,0c2.579,0,2.579-4,0-4c-10,0-20,0-30,0C169.421,124.5,169.421,128.5,172,128.5L172,128.5z"/>
		</g>
	</g>
</g>
<g id="Layer_2">
	<g>
		<g>
			<path d="M234.002,233.308c-11.481,0-22.963,0-34.444,0c-2.579,0-2.579,4,0,4c0.144,0,0.286,0,0.43,0c2.579,0,2.579-4,0-4
				c-18.662,0-37.323,0-55.985,0c-2.579,0-2.579,4,0,4c18.662,0,37.323,0,55.985,0c2.579,0,2.579-4,0-4c-0.144,0-0.286,0-0.43,0
				c-2.579,0-2.579,4,0,4c11.481,0,22.963,0,34.444,0C236.581,237.308,236.581,233.308,234.002,233.308L234.002,233.308z"/>
		</g>
	</g>
	<g>
		<g>
			<path d="M236.315,235.195c0-38.234,0-76.468,0-114.702c0-2.58-4-2.58-4,0c0,38.234,0,76.467,0,114.702
				C232.315,237.774,236.315,237.774,236.315,235.195L236.315,235.195z"/>
		</g>
	</g>
</g>
</svg>
