<?xml version="1.0" encoding="UTF-8"?><svg id="Layer_2_copy_2" xmlns="http://www.w3.org/2000/svg" viewBox="0 0 1000 1000"><defs><style>.cls-1{stroke-dasharray:0 0 3 4;}.cls-1,.cls-2,.cls-3{stroke:#2c2825;stroke-linejoin:round;stroke-width:2px;}.cls-1,.cls-3{fill:none;}.cls-2{fill:#2c2825;}.cls-4{fill:#d6ecef;stroke-width:0px;}</style></defs><circle class="cls-4" cx="681" cy="641.79" r="25.38"/><circle class="cls-4" cx="587.84" cy="313.36" r="61.71"/><path class="cls-3" d="m267.43,405.45c3.16,5.52,7.61,10.3,12.9,13.86,1.18.79,2.56,1.81,2.47,3.23-.08,1.22-1.26,2.08-2.42,2.47s-2.43.5-3.48,1.13c-1.42.85-2.19,2.52-2.37,4.16-.18,1.65.16,3.3.49,4.92.77,3.78,1.55,7.56,2.32,11.34.54,2.65,1.05,5.56-.23,7.94-1.46,2.71-4.78,3.83-7.84,4.08s-6.2-.12-9.17.67c-5.97,1.59-9.79,7.44-11.95,13.24-2.16,5.79-3.3,12.06-6.68,17.24"/><path class="cls-2" d="m264.17,418.33c-1.3,1.42-3.4-.58-2.01-1.86,1.24-1.14,3.25.5,2.01,1.86Z"/><path class="cls-3" d="m275.02,437.22c-3.49,1.7-7.74,1.77-11.28.16"/><path class="cls-3" d="m244.91,379.84c3.89.84,7.29,3.72,8.73,7.44,1.44,3.71.9,8.13-1.41,11.38"/><path class="cls-3" d="m244.15,385.05c2.01,3.86,2.14,8.65.32,12.61-1.81,3.96-5.52,7-9.76,8"/><path class="cls-3" d="m232.89,401.07c-1.53,2.17-1.21,5.23.08,7.54s3.41,4.04,5.48,5.69c2.07,1.65,4.21,3.34,5.58,5.6,1.5,2.48,1.97,5.56,1.27,8.38s-2.56,5.32-5.05,6.8c-1.31.78-2.95,1.5-3.23,3-.21,1.09.45,2.17,1.29,2.9s1.86,1.2,2.75,1.86c2.76,2.06,3.92,6.01,2.72,9.24s-4.68,5.45-8.11,5.19"/><path class="cls-3" d="m264.57,396.91c4.02-1.94,6.26-7.48,5.57-12.46-.69-4.98-3.94-9.19-7.9-11.27-3.96-2.08-8.54-2.21-12.8-1.16-3,.74-5.9,2.05-8.94,2.51s-6.41-.07-8.63-2.52"/><path class="cls-3" d="m227.51,430.97c-1.99,1.22-2.71,3.89-2.22,6.17.49,2.28,1.95,4.23,3.52,5.95s3.3,3.33,4.54,5.3c3.01,4.8,2.45,11.56-1.32,15.79-3.77,4.23-10.42,5.57-15.53,3.12"/><path class="cls-3" d="m174.39,417.92c-4.05,1.66-7.27,5.23-8.5,9.44s-.44,8.95,2.09,12.53c1.46,2.07,3.51,3.77,5.93,4.52,2.42.75,5.2.47,7.25-1.01,1.76-1.27,2.77-4.14,1.1-5.54-.75-.63-1.81-.73-2.78-.64-4.95.46-8.63,5.55-8.58,10.52s3.13,9.53,7.1,12.52"/><path class="cls-3" d="m224.51,371.21c-7.79-2.37-16.11-3-24.17-1.81-4.13.61-8.27,1.72-11.8,3.95s-6.42,5.71-7.28,9.79c-.79,3.78.16,7.83-.97,11.53-1.21,3.94-4.57,6.82-8,9.11-3.43,2.29-7.17,4.28-9.84,7.42-3.28,3.85-4.59,9.17-4,14.2s3,9.73,6.34,13.53"/><path class="cls-1" d="m200.38,484.83c-.43.35-.86.69-1.29,1.02-4.71,3.55-10.11,6.05-15.35,8.78-13.46,7.01-26.52,16.23-33.62,29.64-9.72,18.35-7.5,43.92-13.82,64.14"/><path class="cls-3" d="m165.29,454.1c.99,5.16,4.21,9.86,8.66,12.65,4.46,2.79,10.09,3.64,15.17,2.28,5.35,5.18,14.25,6.2,20.64,2.37-1.25,5.21-5.14,9.94-9.38,13.43"/><path class="cls-3" d="m200.38,484.83c9.29-.54,23.3,1.15,31.63,5.63,8.34,4.48,16.06,10.19,24.21,15.04,10.77,6.41,22.68,11.65,30.45,21.98,7.76,10.31,10.13,24.03,12.9,37.01,3.54,16.6,7.1,33.34,13.72,48.86,5.68,13.32,8.29,20.75,8.29,20.75"/><path class="cls-3" d="m301.95,584.63c-13.71,5.85-27.42,11.69-41.13,17.54"/><path class="cls-3" d="m265.55,608.06c8.93,27.98,21.42,54.82,37.06,79.68"/><path class="cls-3" d="m272.99,629.56c-7.39,20.89-9.32,43.68-5.56,65.52"/><path class="cls-3" d="m760.54,454.5c4.49,1.28,11.61,1.56,17.41.86,1.25-.15,2.1,1.21,1.43,2.27-2.2,3.48-4.93,5.69-8.61,6.46-4.2.87-8.2-1.64-8.97-5.86"/><path class="cls-3" d="m752.26,440.55c1.48,6.12-1.26,18.14,3.15,27.7,1.26,2.73,2.82,5.47,5.4,7.41,3.61,2.72,8.76,3.49,13.51,2.98,4.74-.51,9.2-2.15,13.58-3.78"/><path class="cls-3" d="m817.87,451.15c-.13,7.18-.03,14.36.3,21.53"/><path class="cls-3" d="m821.26,473.25c.65.64.72,1.71.37,2.56s-1.03,1.5-1.74,2.08c-.58.47-1.2.91-1.91,1.11h0c-5.53,1.5-.82-9.76,3.28-5.74Z"/><path class="cls-2" d="m826.3,571.18l-25.7-4.1c-.72-.11-1.39-.36-1.99-.72-2.01-1.19-3.21-3.59-2.84-6.11h0c.3-2.04,1.57-3.69,3.24-4.51,1-.49,2.16-.69,3.34-.5l25.7,4.1c2.36.38,4.17,2.19,4.72,4.45.18.75.23,1.56.11,2.38h0c-.24,1.64-1.1,3.01-2.29,3.92s-2.71,1.34-4.29,1.09Z"/><path class="cls-3" d="m755.21,517.4c7.64-3.75,12.24-12.22,10.94-20.16-.38-2.28-1-5.06.93-6.51,1.2-.89,2.9-.82,4.43-.75,12.82.58,22.69,2.13,36.2-1.95,2.39-.72,4.93.53,5.86,2.93,1.73,4.5-.28,15.87,2.94,19.36,6.9,7.47,20.02,6.55,29.44,10.06,10.75,4.01,17.72,10.04,24.23,17.87,8.01,9.63,11.59,22.39,13.54,34.95,1.96,12.56,2.08,38.3,5.12,50.62,3.44,13.97,14.08,54.65-6.37,79.13-6.31,6.85-16.2,9.16-25.28,8.06-9.07-1.12-17.53-5.22-25.64-9.62-8.38-4.55-16.66-9.54-23.53-16.29-6.88-6.75-12.31-15.44-13.83-25.14-.92-5.86-.4-11.97-2.05-17.67-2.57-8.92-5.9-13.94-13.82-19.96"/><path class="cls-3" d="m811.76,613.41c-3.86,9.07-10.51,16.83-18.73,21.87"/><path class="cls-3" d="m792.61,588.04c-3.38-9.61-6.96-19.54-14.03-26.86-6.56-6.79-15.5-10.67-24.19-14.38-9.41-4.02-19.63-8.13-29.6-5.83"/><path class="cls-3" d="m753.89,554.13c-9.3-4.42-19.68-6.57-29.97-6.21"/><path class="cls-3" d="m750.15,562.29c-9.04-5.07-18.94-8.62-29.15-10.43"/><path class="cls-3" d="m728.12,569.23c5.69,2.94,11.55,6.02,15.33,10.65,6.06,7.42,6.05,17.97,13.91,24.08,2.68,2.08,6.03,3.42,9,5.19s7.23,5.5,8.3,7.75c11.83-4.59,19.96-12.89,23.13-27.13,1.79,8.15,6.83,15.47,13.66,19.88,5.82,3.76,12.65,5.36,19.12,7.71,20,7.26,37.27,22.34,47.6,41.55"/><path class="cls-3" d="m767.09,552.6c-3.01-4.06-7.61-9.83-10.62-13.89-.9-1.21-1.81-2.44-3.01-3.37s-2.71-1.54-4.2-1.32"/><path class="cls-3" d="m724.97,558.71c8.07,3.87,15.97,8.09,23.68,12.63"/><polyline class="cls-3" points="645.22 619.89 646.57 652.03 750.15 668.86 749.26 601.79"/><polyline class="cls-1" points="749.41 544.74 748.64 517.15 640.44 506.49 643.53 579.83"/><path class="cls-3" d="m729.94,512.5c.08-2.33.74-4.77,2.21-6.15s3.86-1.24,4.87.71c.51.98.6,2.21.65,3.38.2,4.86-.11,9.76-.93,14.51-.19,1.11-.42,2.25-.97,3.15s-1.49,1.5-2.34,1.18c-.77-.29-1.28-1.27-1.45-2.27s-.05-2.04.07-3.06c.55-4.79,1.1-9.57,1.65-14.36"/><path class="cls-3" d="m648.66,575.15c-7.83,7-15.3,14.4-22.37,22.17"/><path class="cls-3" d="m649.3,581.43c-6.3,7.08-12.17,14.54-17.57,22.34"/><path class="cls-3" d="m650.06,589.65c-6.8,8.75-12.86,18.07-18.09,27.83"/><path class="cls-3" d="m650.05,602.89c-5.44,7.33-9.92,15.36-13.29,23.84"/><polyline class="cls-1" points="506.6 360.5 506.6 280.95 687.71 280.95 687.71 394.57 573.41 394.57"/><polyline class="cls-3" points="518.13 332.21 518.13 291.82 676.19 291.82 676.19 383.71 549.76 383.71"/><path class="cls-3" d="m545.64,307.84c35.47,0,70.94,0,106.41,0"/><path class="cls-3" d="m545.64,321.25c35.47,0,70.94,0,106.41,0"/><path class="cls-3" d="m545.64,345.18c10.45,0,20.9,0,31.36,0"/><polygon class="cls-2" points="641.54 333.79 644.78 331.34 646.83 334.84 650.76 333.82 651.32 337.84 655.34 338.4 654.31 342.32 657.81 344.38 655.37 347.61 657.81 350.85 654.31 352.9 655.34 356.83 651.32 357.39 650.76 361.41 646.83 360.39 644.78 363.89 641.54 361.44 638.3 363.89 636.25 360.39 632.32 361.41 631.76 357.39 627.75 356.83 628.77 352.9 625.27 350.85 627.72 347.61 625.27 344.38 628.77 342.32 627.75 338.4 631.76 337.84 632.32 333.82 636.25 334.84 638.3 331.34 641.54 333.79"/><polyline class="cls-3" points="644.62 357.7 634.35 376.13 630.98 369.39 623.47 370.07 628.31 361.39"/><polygon class="cls-3" points="648.73 376.13 652.1 369.39 659.61 370.07 649.35 351.64 638.47 357.7 648.73 376.13"/><path class="cls-3" d="m659.61,711.38h-92.8s-.09-.39-.27-1.11c-1.96-8.14-14.25-59.15-20.16-84.95-2.2-9.58-5.29-20.07-12.73-26.52-6.91-6-16.7-6.99-25.82-7.66-35.7-2.63-72.21-1.15-108,3.38-9,1.15-18.68,3.95-25.02,10.42-7.87,8.02-8,20.6-7.62,31.82.72,21.95.95,51.5,1.67,73.67l.04.96h-108.56c-13.6-25.8-8.2-57.19-13.89-85.79-2.38-11.95-7.37-24.3-17.64-30.86-9.05-5.78-20.45-6.02-31.19-6.07-28.81-.13-35.38-.26-64.19-.38-7.16-.04-14.75.05-20.85,3.8-6.1,3.75-9.65,12.6-5.33,18.31"/><line class="cls-1" x1="821.84" y1="711.38" x2="659.61" y2="711.38"/><path class="cls-2" d="m643.53,708.43c-4.25,9.6-9.84,15.38-22.96,16.37-20.05,1.52-30.79-2.63-47.47-10.21-.65-.29-5.68-2.84-6.29-3.22-1.96-8.14-14.53-60.27-20.43-86.06-2.2-9.58-5.29-20.07-12.73-26.52-6.91-6-16.7-6.99-25.82-7.66-35.7-2.63-72.21-1.15-108,3.38-9,1.15-18.68,3.95-25.02,10.42-7.87,8.02-8,20.6-7.62,31.82.72,21.95.98,52.46,1.7,74.62-.44.32-1.31,1.01-1.82,1.32-8.1,4.98-28.57,11.01-41.4,7.5-5.81-1.6-12.02-3.86-15.29-8.82-.15-.22-.3-.45-.43-.67-2.22-3.84-2.33-8.53-2.06-12.98,1.12-18.26,7.68-35.71,14.15-52.83,13.84-36.57,27.67-73.13,41.51-109.7,4.8-12.7,10.26-26.24,21.62-33.66,9.83-6.41,22.08-7.42,33.58-9.75,27.45-5.59,34.65-9.38,36.73-20.91,0,0,22.69-7.96,51.12,4.06l4.25,9.86c16.39,13.67,44.66,9.07,60.71,24.97,8.76,8.66,12.16,21.17,16.29,32.78,16.02,44.99,42.17,78.19,54.89,124.21,3.26,11.82,5.75,30.45.79,41.67Z"/><path class="cls-3" d="m555.72,619.18c10.71,22.49,21.41,44.98,32.12,67.46"/><path class="cls-3" d="m393.53,550.85c-2,13.58-3.28,27.34-3.82,41.15"/><path class="cls-3" d="m506.6,474.95h0c3.29-3.5,7.62-5.94,12.27-6.81,4.67-.89,10.09-.47,13.46-3.93,2.46-2.52,3-6.36,3.42-9.92.71-6.17,1.42-12.34,2.13-18.51.11-.91.22-1.87.75-2.61,1.06-1.54,3.24-1.54,5.07-1.62,1.85-.08,4.1-.86,4.28-2.74.07-.78-.26-1.53-.58-2.24-3.51-7.64-5.18-11.29-8.7-18.93"/><path class="cls-3" d="m526.99,442.5c2.91,1.88,6.36,2.85,9.79,2.76"/><path class="cls-3" d="m540.33,389.43c.59,6.56-.38,8.77-2.97,13.63-1.03,1.93-3.28,5-6.98,6.82s-7.96,1.94-11.69,3.58c-5.01,2.21-7.44,7.51-8.59,12.51-1.28,5.59-1.52,11.38-3.15,16.9s-5.07,10.87-10.64,13.43c-9.1,4.19-35.68,1.09-35.68,1.09,2.13-4.9,1.14-10.64-1-15.53s-5.35-9.23-7.85-13.95c-4.1-7.72-6.3-16.6-5.28-25.28,1.02-8.68,5.45-17.1,12.6-22.12"/><path class="cls-3" d="m540.92,393.64c2.9-.11,5.71-1.69,7.32-4.1,1.61-2.42,1.98-5.61.96-8.33"/><path class="cls-3" d="m537.36,371.16c-11.76-1.05-21.96-9.11-33.68-10.45-5.69-.65-11.45.33-17.02,1.66-5.18,1.24-10.36,2.81-14.84,5.69-4.48,2.88-8.22,7.23-9.38,12.42"/><path class="cls-3" d="m532.79,374.79c3.93,1.32,8.5.57,11.8-1.95"/><path class="cls-3" d="m547.64,376.22c-5.67,5.08-14.12,6.84-21.34,4.45"/><path class="cls-3" d="m514.81,437.49c-3.15-.86-5.48-4.08-5.31-7.33"/><path class="cls-3" d="m457.89,480.78c14.48-2.27,29.39-1.51,43.58,2.23"/><path class="cls-3" d="m769.11,511.83c12.8,5.57,34.04,5.57,46.55-2.85"/><path class="cls-3" d="m758.14,407.71c4.74-17.34,14.34-28.35,27.18-32.77s25.47-2.52,37.34,3.88c5.76,3.11,10.96,7.55,13.54,13.33,4.26,9.53.73,20.48,1.99,30.76.66,5.38,1.4,11.39,1.3,16.81-.16,8.84-5.24,16.54-14,19.64"/><path class="cls-3" d="m817.91,430.88c1.48-1.96,4.58-2.16,6.64-.82s3.55,4.46,3.9,6.89c1,6.85-2.24,13.29-5.5,16.19-2.53,2.25-6.26,3.98-9.64,3.78-3.96,7.87-5.49,13.93-4.54,26.87"/><path class="cls-3" d="m754.86,395.53c6.56,6.99,18.42,11.03,30.8,10.79,8.54-.17,17.38-2.27,22.79-5.11.52-.27,1.14.08,1.15.67.03,8.15,1.24,20.98,4.83,27.74.13.24-.03.53-.31.55l-17.84,1.11"/><path class="cls-3" d="m767.42,426.58c-1.19,6.03-3.62,11.81-7.08,16.89-.59.86-1.23,1.93-.78,2.87.41.86,1.52,1.1,2.47,1.18,2.68.24,4.13-.11,6.79-.53"/><ellipse class="cls-3" cx="755.47" cy="424.29" rx="10.55" ry="12.58" transform="translate(-.56 1) rotate(-.08)"/><ellipse class="cls-3" cx="784.12" cy="429.61" rx="12.26" ry="13.17" transform="translate(-5.96 11.07) rotate(-.81)"/><path class="cls-3" d="m765.82,426.45c2,.23,3.99.46,5.99.69"/><path class="cls-3" d="m742.32,588.28c.42,24.66.84,49.32,1.26,73.98"/><path class="cls-3" d="m819.65,376.58c11.6-3.25,24.24,3.94,30.51,14.42,6.27,10.48,7.23,23.43,6.15,35.66-1.39,15.72-5.85,30.96-9.14,46.38-3.29,15.42-5.42,31.5-2.12,46.92"/></svg>