<?xml version="1.0" encoding="UTF-8"?>
<svg id="Layer_2_copy_2" data-name="Layer 2 copy 2" xmlns="http://www.w3.org/2000/svg" viewBox="0 0 1000 1000">
  <defs>
    <style>
      .cls-1 {
        stroke-dasharray: 0 0 3 4;
      }

      .cls-1, .cls-2, .cls-3 {
        stroke: #2c2825;
        stroke-linejoin: round;
        stroke-width: 2px;
      }

      .cls-1, .cls-3 {
        fill: none;
      }

      .cls-2, .cls-4 {
        fill: #2c2825;
      }

      .cls-4, .cls-5 {
        stroke-width: 0px;
      }

      .cls-5 {
        fill: #d6ecef;
      }
    </style>
  </defs>
  <circle class="cls-5" cx="267" cy="478.76" r="92.07"/>
  <circle class="cls-5" cx="842.68" cy="642.35" r="47.46"/>
  <path class="cls-3" d="M211.56,350.37c15.33,4.9,30.96,9.96,43.92,19.5,18.86,13.88,29.97,35.59,41.3,56.08,9.76,17.65,20.14,34.96,31.12,51.89,1.35,2.08,2.75,4.2,4.76,5.65s4.68,1.86,7,.98c12.36-4.72,63.59-36.15,63.59-36.15,0,0,21.37,9.66,21.92,26.68"/>
  <path class="cls-1" d="M245.9,457.79c14.77,26.39,33.35,50.65,55,71.77,3.76,3.67,7.65,7.27,12.23,9.84,4.58,2.57,10.87,4.74,16.08,4.1,10.66-1.3,42.49-17.09,90.05-59.91"/>
  <path class="cls-3" d="M427.14,466.65s8.87-7.49,12.94-11.54c.92-.92,1.85-1.87,2.75-2.86,3.05-3.35,5.69-7.11,6.27-11.52,1.45-11.04-5.1-21.41-5.74-22.82-1.05-2.27-.34-5.12-1.67-7.22-1.42-2.25-4.7-2.64-7.15-1.61-2.44,1.04-4.26,3.13-5.99,5.14s-3.59,4.08-6.07,5.04c-.06.02-.13.05-.18.07-2.03.75-4.29.71-6.33,1.44-3.3,1.19-5.62,4.26-6.87,7.54-1.26,3.27-1.62,6.81-2.21,10.27-.59,3.47-1.45,6.99-3.53,9.82"/>
  <path class="cls-3" d="M467.07,415.84c4.51-3.76,9.17-7.38,14.5-9.81,6.31-2.87,13.78-3.91,20.17-1.21,6.58,2.78,11.39,8.7,14.94,14.9,25.35,44.36,54.04,108.28,75.37,157.33-28.53,2.82-48.57,24.88-48.57,24.88,0,0-12.9-19.58-25.56-38.69-22.52-34-41.75-81.04-41.75-81.04l-103.2,41.07"/>
  <path class="cls-3" d="M559.04,645.36h0c.69-2.38,3.29-4.93,6.12-7.01,11.66-8.6,27.74-11.65,38.66-20.74,4.94-4.11,8.25-9.04,13.65-12.82,4.73-3.31,11.99-6.88,17.35-8.68,9.1-3.06,15.92-5.21,25.65-7.53,1.48-.35,3.37-.63,4.58-.46,2.5.35,2.86,2.25,1.62,4.68-1.62,3.19-5.03,6.31-8.66,9.04-9.16,6.88-15.99,12.94-29.84,19.04-5.24,2.31-10.45,2.39-15.74,4.1-8.04,2.59-15.44,7.92-22.56,12.85-6.41,4.44-12.92,8.49-20.28,10.93-5.49,1.82-11.92,1.35-10.56-3.39Z"/>
  <path class="cls-3" d="M557.03,643.4c-5.47-13.5-9.74-19.25-5.83-23.2,3.91-3.95,6.61.5,20.54-3.67,10.9-3.25,21.62-12.4,27.1-20.39,7.73-11.27,3.1-15.26,16.25-14.89,12.87.36,24.32.12,36.86-.74,11.18-.76,14.9,2.36,15.4,8.91"/>
  <path class="cls-3" d="M545.08,600.7c2.87,5.05,5.08,10.47,6.54,16.09-.05-.11-.09-.22-.14-.33"/>
  <path class="cls-3" d="M580.96,582.39c2.51,2.39,6.17,3.13,9.64,3.31s10.36.75,10.36.75"/>
  <path class="cls-3" d="M592.05,577.05c3.14.85,1.14,5.34-3.64,8.45"/>
  <path class="cls-3" d="M476.17,482.19c-4.67-10.23-10.68-11.7-10.68-11.7"/>
  <path class="cls-3" d="M305.7,539.94c-19.8,25.12-44.64,46.25-72.61,61.77"/>
  <path class="cls-3" d="M232.86,610.01c23.1,9.76,49.53,6.04,73.98.47,38.96-8.87,76.94-22.04,113.03-39.19,7.09-3.37,14.2-6.92,21.85-8.68,7.65-1.76,16.07-1.57,22.91,2.27s15.36,19.83,22.93,44.7c5.59,18.36,28.44,120.94,28.44,120.94,0,0,37.87.81,61.29-4.04l-10.73-71.39"/>
  <path class="cls-3" d="M525.08,733.12c-1.55,10.44-2.76,20.94-3.61,31.46-.29,3.59,2.46,6.72,6.06,6.85,6.72.24,17.57.43,27.5-.31,15.85-1.18,35.05.69,52.9,1.07,26.75.57,33.95-5.08,33.95-5.08-.63-6.65-5.59-11.94-11.08-14.62-5.49-2.68-11.57-3.33-17.47-4.55-14.14-2.94-27.68-9.39-39.35-18.77"/>
  <path class="cls-3" d="M588.04,738.91c-2.21,7.42-5.72,14.71-13.29,17.88-5.52,2.31-11.97,1.45-17.82-.01-11.38-2.85-19.16-6.8-33.41-8.59"/>
  <line class="cls-3" x1="242.41" y1="650.94" x2="247.76" y2="634.04"/>
  <path class="cls-1" d="M403.5,617.25l41.15,130.12c4.29,13.55-5.84,27.37-20.06,27.37h-77.43"/>
  <path class="cls-3" d="M225.82,735.52l-4.67,14.76c-1.1,3.49-.49,7.18,1.66,10.13,2.16,2.95,5.5,4.65,9.16,4.65h192.62c3.66,0,7-1.69,9.16-4.65,2.17-2.95,2.77-6.64,1.66-10.13l-27.83-87.99"/>
  <line class="cls-3" x1="257.48" y1="635.39" x2="249.15" y2="661.73"/>
  <path class="cls-4" d="M343.49,689.53c-1.98,6.87-10.04,12.55-16.43,14.45s-13.78,3.52-12.55,10.89c1.01,6.12-3.09,12.28-3.09,12.28,0,0-5.89,10.96-1.85,19.54,5.33,11.28,10.7,21.67,10.7,21.67l1.75,2.13c1.4,1.7.2,4.25-1.99,4.25h-4.3c-4.49,0-8.57-2.63-10.42-6.73-5.01-11.12-14.69-32.46-16.76-36.04-2.82-4.87-4.31-4.28-4.31-4.28,0,0-4.84,1.98-13.18,3.1h.06l-11.23,33.78c-.66,1.98-.41,4.15.69,5.92l.36.59c.98,1.6-.17,3.66-2.04,3.66h-3.1c-2.33,0-4.52-1.13-5.87-3.03-.61-.86-1.25-1.83-1.81-2.71-1.07-1.69-1.43-3.72-1-5.67l6.96-31.93h.09c-2.58-.15-5.3-.42-8.14-.83-6.7-.98-12.49-2.16-17.48-3.43-2.86,6.76-11.32,10.53-14.16,17.54-1.51,3.71-1.24,7.96-.05,11.78,1.19,3.83,3.23,7.33,5.26,10.79l1.78,2.38c1.57,2.11.07,5.11-2.57,5.11h-3.15c-3.27,0-6.32-1.68-8.08-4.44-2.07-3.26-3.49-6.9-4.17-10.71l-4.27-18.61c-.21-3.86.83-7.68,2.94-10.92,1.84-2.82,4.83-6.68,5.35-10.68-4.4-2.36-6.19-4.06-6.19-4.06,0,0-15.82,12.35-29.39,17.35-10.24,3.78-16.01,15.61-17.38,22.68-.44,2.33,1.89,7.78,3.35,9.65l2.09,2.69c1.98,2.53.18,6.23-3.05,6.23h-4.23c-3.52,0-6.69-2.1-8.07-5.34l-2.22-5.27c-1.67-3.95-2.19-8.3-1.5-12.54,1.14-6.95,3.81-17.18,10.03-22.13,9.92-7.9,23.71-18.36,22.71-40.45-.48-10.91.19-18.58,2.43-24.79-1.03.1-2.07.17-3.11.19-3.37.08-6.8-.31-10.08-1.08-3.18-.73-6.2-2.01-9.13-3.43-4.8-2.33-9.23-5.29-13.33-8.68-3.88-3.2-7.21-6.93-10.19-10.97-2.87-3.88-5.05-8.11-6.9-12.57-1.63-3.94-2.79-8.07-3.45-12.29-.74-4.75-1.07-9.52-.68-14.32.39-4.83,1.24-9.64,2.73-14.26,3.13-9.69,8.54-18.49,15.64-25.77,1.19-1.21,2.8-1.77,4.46-1.85,1.67-.07,3.25.74,4.45,1.85,1.15,1.06,1.84,2.9,1.84,4.44,0,1.64-.71,3.29-1.84,4.45-1.46,1.5-2.86,3.06-4.16,4.71.13-.19.27-.37.4-.55-.33.43-.65.86-.98,1.28.19-.25.38-.49.58-.73-2.71,3.6-5.02,7.49-6.83,11.61.1-.25.2-.49.3-.73-.21.5-.42,1-.64,1.5.11-.26.23-.52.34-.77-1.66,4.1-2.84,8.38-3.49,12.74.01-.14.02-.29.04-.44-.05.41-.11.83-.17,1.24.04-.27.08-.54.13-.8-.51,4.22-.51,8.5-.02,12.73-.05-.26-.09-.53-.13-.79.06.41.12.82.17,1.23-.02-.15-.03-.29-.04-.44.62,4.2,1.74,8.31,3.34,12.24-.07-.14-.13-.28-.19-.43.15.36.3.71.45,1.07-.09-.21-.17-.42-.26-.64,1.61,3.6,3.6,7.01,5.96,10.17-.07-.08-.15-.17-.23-.26.26.32.5.63.74.96-.17-.24-.34-.47-.51-.7,2.61,3.29,5.6,6.26,8.89,8.88-.23-.17-.46-.34-.69-.52.43.33.85.66,1.28.99-.2-.15-.4-.31-.59-.47,3.59,2.7,7.5,4.98,11.6,6.8-.23-.09-.46-.18-.69-.28.36.15.73.31,1.1.46-.14-.06-.28-.12-.41-.18,2.15.85,4.4,1.45,6.68,1.82-.27-.03-.55-.06-.82-.1.56.08,1.12.16,1.67.23-.28-.04-.57-.08-.85-.13,2.57.27,5.15.26,7.72-.03-.14.03-.28.05-.41.08.4-.05.8-.11,1.2-.17-.26.04-.53.07-.79.09,2.7-.41,5.34-1.14,7.89-2.15-.1.05-.2.1-.3.14.31-.13.63-.27.95-.4-.2.09-.4.17-.6.24,1.95-.89,3.84-1.94,5.6-3.17.34-.23.72-.42,1.1-.55,13.14-9.49,32.46-9.02,44.3,3.18,4.25,4.38,9.09,9.11,14.1,13.66,9.89,8.95,20.5,17.17,28.86,20.5.3.12.59.23.89.33,7.13,2.45,14.95-.8,18.74-7.33,3.79-6.53,6.22-13.85,7.07-21.35.1-.86.19-1.75.59-2.52.4-.76,1.22-1.39,2.08-1.28.65.07,1.15.52,1.58,1.03,1.46,1.73,2.77,3.58,3.87,5.55,1.75,3.18,5.05,5.15,8.64,5.21,1.1.02,2.29.06,3.49.12,2.55.13,5.04-.72,7-2.34,2.24-1.87,5.4-4.28,8.35-5.72,1.32-.65,2.84.46,2.63,1.93-.52,3.73-1.48,9.95-2.41,13.21,0,0,4.95,13.59,2.96,20.46Z"/>
  <path class="cls-3" d="M343.18,695.85c5.36,4,9.64,9.42,12.3,15.55"/>
  <path class="cls-3" d="M344.97,691.84c7.11,4.06,13.13,10.01,17.28,17.07"/>
  <path class="cls-3" d="M347.16,688.32c3.55,1.11,6.9,2.88,9.82,5.2"/>
  <path class="cls-3" d="M345,684.61c6.26-.95,12.94,1.57,17.02,6.42"/>
  <path class="cls-3" d="M293.5,675.29c-3.27-2-7.55-2.22-11.01-.57"/>
  <path class="cls-3" d="M293.52,671.51c-4.37-2.61-9.11-4.59-14.04-5.87"/>
  <path class="cls-3" d="M297.88,670.2c-4.03-4.17-9-7.42-14.43-9.44"/>
  <path class="cls-3" d="M417.68,420.33v-7.63c0-2.86,2.22-5.43,7.49-5.43h5.27"/>
  <path class="cls-3" d="M420.91,408.04c-.43-4.33-.75-8.67-.97-13.02-.12-2.27,1.52-4.26,3.77-4.6,7.39-1.11,24.27-2.63,43.36,2.5,2.17.58,3.54,2.72,3.22,4.95-2.66,18.32-6.89,36.43-14.49,52.97,0,0-5.01,1.94-12.96,1.42"/>
  <path class="cls-3" d="M423.24,395.08c13.42,5.33,29.55,6.17,43.73,2.27"/>
  <path class="cls-3" d="M199.31,349.73c-16.64,13.82-30.74,30.67-41.42,49.47"/>
  <g>
    <path class="cls-3" d="M272.05,257.73c4.37,4.62,9.88,8.85,12.59,11.5.87.85,1.69,1.81,1.98,2.95.35,1.37-.21,2.83-1.13,3.97s-2.16,2-3.36,2.87c-1.32.96-2.75,2.19-2.65,3.73.05.84.58,2.33.98,3.09.45.86.9,1.7,1.29,2.42.72,1.33.08,2.95-1.41,3.53-1.81.7-6.78,1.12-10.93,1.2-.93.02-1.12,1.32-.23,1.6,3.06.95,6.7,1.7,6.7,1.7,2,.62,3.02,2.63,2.28,4.45-.69,1.7-1.14,3.94-.38,6.38,1.62,5.22,4.32,10.35-3.91,14.05-8.24,3.69-14.55,1.48-23.62,23.83"/>
    <path class="cls-3" d="M261.11,235.66c1.71-7.16-3.21-14.78-9.96-17.7s-14.7-1.82-21.39,1.25c-6.68,3.07-28.51,15.95-39.82,27.68-8.46,8.78-13.62,21.54-11.46,33.54,3.38,18.77,24.64,30.1,28.73,48.72,8.24-1.83,16.36-12.84,17-21.71"/>
    <ellipse class="cls-3" cx="263.25" cy="262.11" rx="6.38" ry="12.31" transform="translate(-62.72 83.94) rotate(-16.21)"/>
    <path class="cls-3" d="M257.87,266.08c-3.34,3.36-9.12,3.57-14.09,4.62-5.2,1.1-8.11,1.72-13.32,2.82-2.87.61-5.79,1.23-8.37,2.47-2.58,1.24-4.85,3.2-5.65,5.7"/>
    <path class="cls-3" d="M216.45,290.98c.23,5.96,4.35,11.58,9.97,13.6,2.4.86,5.19,1.07,7.43-.15"/>
    <path class="cls-3" d="M209.61,333.2c-.79,4.63-2.78,9.04-5.72,12.71"/>
  </g>
  <path class="cls-3" d="M705.15,321.18c.24,5.07.62,15.18,3.3,19.49s7.81,5.52,12.82,6.28"/>
  <path class="cls-3" d="M670.78,327.93s.74,7.56,1.22,10.48c0,0,0,.02,0,.07"/>
  <path class="cls-3" d="M643.48,349.18s10.19-1.85,14.85-3.59c4.11-1.54,10.54-4.09,13.67-7.18,0,0,2.14,24.05,13.48,39.91-10.2-3.7-17.14-11.44-25.94-19.04-6.53-5.63-9.5-10.44-9.5-10.44"/>
  <path class="cls-3" d="M710.96,347.25c-7.94,15.15-25.49,31.07-25.49,31.07,0,0,26.25-7.05,38.41-24.2"/>
  <path class="cls-3" d="M660.48,365.94c3.93,26.55,11.54,52.56,22.53,77.04,0,0,25.09-54.07,36.39-82.95"/>
  <path class="cls-3" d="M827.19,392.32c-3.58,9.39-7.54,15.67-14.1,21.59"/>
  <path class="cls-3" d="M801.05,420.11c-.54-.45-.43-1.37.03-1.9s1.17-.77,1.84-.99c3.94-1.28,7.87-2.57,11.81-3.85,1.79-.58,4.01-1.08,5.35.25,1.01,1,1.02,2.59.98,4"/>
  <path class="cls-3" d="M800.83,425.13c-.51-.9-.04-2.09.76-2.74s1.85-.88,2.86-1.09c3.51-.74,7.01-1.49,10.52-2.23.86-.18,1.74-.37,2.61-.28s1.76.49,2.23,1.23c.38.62.42,1.39.46,2.12.07,1.65.14,3.3.21,4.95.09,2.12.1,4.47-1.32,6.05-.53.59-1.22,1.02-1.9,1.43-3.98,2.43-7.97,4.87-11.95,7.3-2.94,1.8-5.99,3.63-9.39,4.18-4.86.78-10.9-.34-14.41-5.62-3.59-5.4-3.17-11.33-2.24-15.44.91-4.06,3.34-7.59,5.8-10.94,4.64-6.31,9.6-12.43,13.4-19.27.42-.77.95-1.62,1.81-1.76.83-.14,1.64.52,1.95,1.31s.24,1.67.14,2.51c-.4,3.27-1.22,6.47-2.02,9.66-.34,1.36-.39,3.25.94,3.66.77.24,1.57-.22,2.24-.68,6.72-4.53,12.71-10.12,17.69-16.51.91-1.16,1.79-2.36,2.94-3.29s2.61-1.57,4.07-1.4"/>
  <path class="cls-3" d="M816.26,424.69c-4.95,1.61-9.9,3.22-14.85,4.83"/>
  <path class="cls-3" d="M581.57,478.5c-.42,2.43-.69,4.87-.73,7.33-.08,5.61,1.23,11.42,4.72,15.82,4.16,5.24,11.32,7.91,17.89,6.68,4.21-.79,8-3,11.6-5.32"/>
  <path class="cls-3" d="M618.06,354.91c-8.34,9.01-11.57,21.48-14.51,33.4-2.58,10.48-5.16,20.95-7.74,31.43"/>
  <path class="cls-3" d="M801.9,443.84h0c-3.35,7.87-6.21,15.93-8.58,24.14-1.92,6.63-3.55,13.45-7.02,19.42-3.48,5.98-9.22,11.09-16.08,11.84-3.36.37-6.76-.35-9.82-1.78-.25-.11-.49-.23-.73-.36-.84-.42-1.66-.92-2.43-1.45-1.85-1.28-3.5-2.81-4.98-4.5h-.01"/>
  <path class="cls-3" d="M768.64,395.29c2.68,8.21,4.71,16.68,6.05,25.28"/>
  <path class="cls-4" d="M764.51,542.18c-.2,23.79-14.35,47.16-57.43,43.71,3.91-23.02,7.42-45.34-5.59-57.32-10.19-9.38-24.83-10.97-35.85-4.66-5.8,3.33-12.87,3.39-18.64,0-6.2-3.63-13.28-6.51-20.93-7.17-10.26-.88-14.86,4.01-14.86,4.01,1.44-7.01,12.5-22.67,36.7-22.22,27.77.52,71.35,3.04,81.71.79,10.35-2.25,22.63-8.19,22.63-8.19h0c1.48,1.69,3.14,3.22,4.99,4.5.77.53,1.59,1.03,2.43,1.45,1.97,11.79,4.96,31.23,4.84,45.08Z"/>
  <path class="cls-3" d="M609.95,524.06c-3.14,8.48-4.32,13.72-3.94,26.81.26,9.04,1.43,18.02.67,27.03"/>
  <path class="cls-3" d="M606.79,630.23c-1.86,18.32-.71,36.79-.71,55.21s-1.23,37.15-7.61,54.42"/>
  <path class="cls-3" d="M657.24,531.82c-2.38,15.64-3.91,31.4-4.58,47.2"/>
  <path class="cls-3" d="M651.76,606.91c.37,26.78.74,53.56,1.11,80.34.08,5.78.16,11.56-.22,17.32-1.04,15.76-5.56,31.29-13.15,45.14"/>
  <path class="cls-3" d="M705.97,588.85c-1.86,17.08-3.83,34.23-8.38,50.79-2.33,8.5-5.34,16.82-7.35,25.4-7.59,32.28,2.41,65.53.78,97.15h-14.36"/>
  <path class="cls-3" d="M648.97,625.51c-5.51,15.91-9.52,32.34-11.96,49-.86,5.88-1.15,11.83-1.72,17.75-2.89,29.69,6.38,41.03,4.22,57.45"/>
  <path class="cls-3" d="M682.76,743.55c-3.3,1.3-5.7,6.38-7.21,10.84-1.5,4.42-5.49,7.32-9.91,7.32h-25.32"/>
  <line class="cls-3" x1="639.5" y1="749.71" x2="630.79" y2="752.49"/>
  <path class="cls-3" d="M605.96,673.51c9.52,4.82,21.19,5.28,31.02,1.12"/>
  <path class="cls-3" d="M652.71,676.03c11.62,3.1,25.38,2.19,35.9-2.41"/>
  <circle class="cls-2" cx="693.09" cy="285.15" r="1.33"/>
  <circle class="cls-2" cx="665.07" cy="285.53" r="1.33"/>
  <path class="cls-3" d="M677.79,279.69c-.23,6.14-2.13,12.22-5.5,17.59-.63,1-1.32,2.18-.82,3.23.36.75,1.22,1.2,2.08,1.49.95.33,1.96.54,2.98.62"/>
  <path class="cls-3" d="M658.45,313.33c1.96,4.09,4.62,8.33,8.12,11.3,4.01,3.42,7.26,5.41,9.49,6.56,2.21,1.13,4.8,1.3,7.14.46,4.81-1.72,13.67-6.43,22.97-19.18"/>
  <path class="cls-3" d="M676.25,243.32c.07,8.34,6.44,14.53,15.39,17.95,8.33,3.18,14.31,9.47,16.82,17.5,2.84,9.08-1.26,21.9,4.22,29.98,1.71,2.52,4.21,4.54,6.22,6.89,5.7,6.65,7.09,15.53,6.2,23.84-.67,6.29-2.51,12.7-.79,18.83,1.51,5.4,5.62,9.93,7.8,15.15,2.17,5.19,2.33,11.03.45,16.31"/>
  <path class="cls-3" d="M706.26,256.93c6.36,7.25,10.73,16.22,12.5,25.68,1.32,7.06,1.33,14.65,5.1,20.76,1.77,2.87,4.25,5.21,6.32,7.87,5.38,6.94,7.7,16.14,6.27,24.78-.72,4.37-2.36,8.59-2.62,13.01-.3,4.95,1.2,9.99,4.17,13.97,2.39,3.22,5.66,5.73,7.86,9.08,3,4.59,3.69,10.37,3.02,15.8-.67,5.43-2.6,10.62-4.52,15.75"/>
  <path class="cls-3" d="M743.25,321.18c1.4,4.47,1.96,9.21,1.63,13.89-.42,5.92-2.18,12.17.29,17.56,2.02,4.42,6.53,7.3,8.72,11.64,1.7,3.37,1.84,7.29,1.82,11.07s-.13,7.65,1.14,11.2c1.27,3.56,4.3,6.78,8.08,7.03"/>
  <path class="cls-3" d="M645.63,294.86c-.09.93-.14,1.87-.16,2.81-.11,5.09.8,10.21.15,15.25-1.28,9.92-8.43,18.18-8.49,28.21-.03,6.27,2.75,12.07,3.78,18.23,1.53,9.12-1.09,19.02-6.77,25.6"/>
  <path class="cls-3" d="M629.73,396.25c-5.04-7.23-6.31-16.93-3.3-25.2,1.15-3.15,2.88-6.11,3.47-9.41,1.69-9.39-6.13-18.09-6.21-27.63-.1-11.66,10.99-20.29,14.41-31.45,2.2-7.17,1.08-14.87,1.62-22.35,1.39-19.17,11.73-37.7,28.93-46.33,5.32-2.67,15.84-4.92,25.74-2.32,11.38,2.99,22.03,7.29,30.63,26.21h0c1.1,3.04,2.33,7,2.89,10.15,1.23,6.92,3.08,14.08,5.45,20.76,4.04,11.36,14.67,19.94,17.69,31.57,1.71,6.56.81,13.57,3.16,19.96,3.47,9.44,13.26,15.68,16.69,25.13,2.05,5.68,1.55,11.8,1.01,17.69"/>
  <path class="cls-3" d="M623.93,346.94c-3.78,7.61-5.12,16.39-3.78,24.77.34,2.12.84,4.26.62,6.4-.12,1.16-.46,2.29-.89,3.37-1.5,3.69-4.24,6.86-7.68,8.87"/>
  <path class="cls-3" d="M601.55,464.51c-1.38,2.27-3.42,4.06-5.45,5.77-2.42,2.03-4.89,4.01-7.4,5.93-2.26,1.73-5.31,3.47-7.74,1.99-1.19-.72-1.86-2.07-2.31-3.39-1.78-5.22-1.04-10.92-.24-16.38.45-3.05.92-6.13,2.12-8.97,2.94-6.98,13.04-13.17,19.9-15.64h0c1.78-.64,4.19-.95,5.21.65"/>
  <path class="cls-3" d="M633.95,460.02c.03-.54.03-1.09,0-1.64-.13-4.43-1.17-8.81-1.29-13.25-.07-2.72.2-5.42.59-8.12,0,0,9.19-3.45,10.38,5.09,1.53,10.94-9.69,17.92-9.69,17.92ZM589.91,475.28c.8,1.44,1.73,2.83,2.76,4.13,3.23,4.46,29.8,3.7,34.33,0,2.55-3.22,4.45-6.95,5.61-10.89,0,0,2.92-1.21,4.81-2.64,5-3.81,10.85-9.84,12.14-18.32.5-3.32.48-6.79-.8-9.94-1.04-2.52-2.51-4.65-4.79-6.2-2.79-1.9-6.29-2.12-9.54-1.53.23-1.47.44-2.94.59-4.42.2-2.06.08-4.57-1.7-5.62-.85-.49-1.89-.53-2.87-.51-6.04.07-12.05,1.29-18.06,1.4-.84.02-4.31.02-5.18,0-5.99-.14-11.96-1.34-17.97-1.4-.98-.02-2.02.02-2.87.51-1.79,1.06-1.92,3.56-1.7,5.62.54,5.4,1.89,10.74,2.25,16.14"/>
  <path class="cls-3" d="M606.16,437.78c-7.83,3.51-15.11,8.27-21.47,14.04"/>
  <path class="cls-3" d="M607.46,444.6c-9.08,3.9-17.29,9.8-23.9,17.14"/>
  <path class="cls-3" d="M604.72,455.41c-7.54,4.54-14.61,9.87-21.06,15.86"/>
  <path class="cls-3" d="M651.89,337.63c3.11-5.02,2.59-11.23,2.09-14.47-1.29-8.52-2.37-17.12-2.03-25.73.34-8.61,1.52-17.69,6.38-24.8,5.55-8.11,13.32-15.5,14.03-25.08"/>
  <path class="cls-4" d="M895.74,748.97l-9.53-72.33c-.82-6.29-6.19-11-12.54-11h-40.54c-3.37,0-6.11-2.73-6.11-6.11v-1.26c0-7.75-6.28-14.03-14.03-14.03h-26.82c-7.75,0-14.03,6.28-14.03,14.03v2.59c0,2.64-2.14,4.78-4.78,4.78h-40.89c-6.67,0-12.07,5.4-12.07,12.07v71.13c0,7.1,5.75,12.85,12.85,12.85h157.32c6.8,0,12.05-5.99,11.17-12.74ZM780.58,660.82v-2.54c0-3.09,2.51-5.6,5.6-5.6h26.82c3.09,0,5.6,2.51,5.6,5.6v2.54c0,2.67-2.16,4.83-4.83,4.83h-28.36c-2.67,0-4.83-2.16-4.83-4.83Z"/>
  <polyline class="cls-3" points="753.49 662.63 870.6 646.79 872.15 662.34"/>
  <polyline class="cls-3" points="821.86 648.65 862.69 642.35 863.5 647.75"/>
  <line class="cls-3" x1="730.4" y1="662.76" x2="774.13" y2="656.01"/>
  <path class="cls-1" d="M780.54,372.38s13.27-.79,31.32-.67c24.05.15,43.49,19.66,43.49,43.72v66.77"/>
  <path class="cls-1" d="M803.54,634.85s-3.95-73.31,5.3-126.22c3.72-21.26,24.3-26.15,34.27-26.15h22.19c19.5,0,35.79,14.86,37.6,34.28,10.07,107.88-3.84,167.65-3.84,167.65"/>
  <path class="cls-3" d="M752.25,579.64c15.85-4.39,33.97-5.29,50.7-2.61"/>
  <path class="cls-1" d="M595.25,374.19c-101.93,0-203.86,0-305.79,0"/>
  <path class="cls-3" d="M505.88,721.54h-69.4"/>
  <path class="cls-3" d="M426.32,721.54h-93.75"/>
  <path class="cls-3" d="M414.77,582.23c2.29-1.39,5.22-1.67,7.74-.75s4.57,3.02,5.43,5.56c2.58-2.38,6.41-3.31,9.79-2.37,3.38.94,6.19,3.72,7.16,7.08,2.65-2.61,6.75-3.66,10.33-2.64,3.58,1.02,6.51,4.06,7.4,7.68h0c-25.1,5.89-125.26,29.11-161.91,32.11-42.05,3.44-99.67,1.77-126.35-63.65-26.69-65.43-18.12-132.56-35.91-181.87-10.82-29.99-29.84-41.67-43.08-46.22"/>
  <circle class="cls-4" cx="685.47" cy="391.76" r="2.08"/>
  <circle class="cls-4" cx="684.67" cy="407.28" r="2.08"/>
  <path class="cls-3" d="M670.06,309.63c2.2,2.32,5.14,3.66,8.11,3.7,2.97.04,5.94-1.22,8.18-3.47"/>
</svg>